<?xml version="1.0" encoding="UTF-8" standalone="no"?>
<!DOCTYPE svg PUBLIC "-//W3C//DTD SVG 1.1//EN"
 "http://www.w3.org/Graphics/SVG/1.1/DTD/svg11.dtd">
<!-- Generated by graphviz version 2.40.1 (20161225.0304)
 -->
<!-- Title: %3 Pages: 1 -->
<svg width="886pt" height="172pt"
 viewBox="0.00 0.00 886.01 171.54" xmlns="http://www.w3.org/2000/svg" xmlns:xlink="http://www.w3.org/1999/xlink">
<g id="graph0" class="graph" transform="scale(1 1) rotate(0) translate(4 167.5391)">
<title>%3</title>
<polygon fill="#ffffff" stroke="transparent" points="-4,4 -4,-167.5391 882.0122,-167.5391 882.0122,4 -4,4"/>
<!-- &#45;1 -->
<g id="node1" class="node">
<title>&#45;1</title>
<polygon fill="#d3d3d3" stroke="#000000" points="568.5061,-163.5391 542.5061,-163.5391 542.5061,-145.5391 568.5061,-145.5391 568.5061,-163.5391"/>
<text text-anchor="middle" x="555.5061" y="-152.3391" font-family="Times,serif" font-size="9.00" fill="#000000">&#45;1</text>
</g>
<!-- 5 -->
<g id="node14" class="node">
<title>5</title>
<ellipse fill="#ffffff" stroke="#000000" cx="126.5061" cy="-89.033" rx="16.0303" ry="16.0303"/>
<text text-anchor="middle" x="126.5061" y="-86.833" font-family="Times,serif" font-size="9.00" fill="#000000">5</text>
</g>
<!-- &#45;1&#45;&gt;5 -->
<g id="edge9" class="edge">
<title>&#45;1&#45;&gt;5</title>
<path fill="none" stroke="#ff0000" stroke-width=".2365" d="M542.1153,-153.5026C476.2481,-148.3431 188.3297,-125.0622 151.5061,-109.5391 149.6827,-108.7705 147.8875,-107.8247 146.1472,-106.7651"/>
<polygon fill="#ff0000" stroke="#ff0000" stroke-width=".2365" points="148.1622,-103.9026 138.028,-100.8127 144.0234,-109.548 148.1622,-103.9026"/>
</g>
<!-- 8 -->
<g id="node17" class="node">
<title>8</title>
<ellipse fill="#ffffff" stroke="#000000" cx="75.5061" cy="-89.033" rx="16.0303" ry="16.0303"/>
<text text-anchor="middle" x="75.5061" y="-86.833" font-family="Times,serif" font-size="9.00" fill="#000000">8</text>
</g>
<!-- &#45;1&#45;&gt;8 -->
<g id="edge50" class="edge">
<title>&#45;1&#45;&gt;8</title>
<path fill="none" stroke="#ff0000" stroke-width=".1076" d="M542.3676,-153.6786C472.2214,-149.0259 143.469,-126.4606 101.5061,-109.5391 99.5867,-108.7651 97.693,-107.8033 95.8556,-106.7218"/>
<polygon fill="#ff0000" stroke="#ff0000" stroke-width=".1076" points="97.461,-103.569 87.2814,-100.6321 93.4077,-109.2761 97.461,-103.569"/>
</g>
<!-- 10 -->
<g id="node19" class="node">
<title>10</title>
<ellipse fill="#ffffff" stroke="#000000" cx="798.5061" cy="-89.033" rx="20.5122" ry="20.5122"/>
<text text-anchor="middle" x="798.5061" y="-86.833" font-family="Times,serif" font-size="9.00" fill="#000000">10</text>
</g>
<!-- &#45;1&#45;&gt;10 -->
<g id="edge94" class="edge">
<title>&#45;1&#45;&gt;10</title>
<path fill="none" stroke="#ff0000" stroke-width=".1776" d="M568.8482,-148.5793C571.6698,-147.4613 574.6567,-146.3811 577.5061,-145.5391 660.3488,-121.0605 688.7062,-142.6162 768.5061,-109.5391 770.1489,-108.8582 771.7936,-108.0786 773.4199,-107.2303"/>
<polygon fill="#ff0000" stroke="#ff0000" stroke-width=".1776" points="775.629,-109.9858 782.3915,-101.8298 772.0189,-103.9885 775.629,-109.9858"/>
</g>
<!-- 11 -->
<g id="node20" class="node">
<title>11</title>
<ellipse fill="#ffffff" stroke="#000000" cx="857.5061" cy="-89.033" rx="20.5122" ry="20.5122"/>
<text text-anchor="middle" x="857.5061" y="-86.833" font-family="Times,serif" font-size="9.00" fill="#000000">11</text>
</g>
<!-- &#45;1&#45;&gt;11 -->
<g id="edge26" class="edge">
<title>&#45;1&#45;&gt;11</title>
<path fill="none" stroke="#ff0000" stroke-width=".2994" d="M568.8207,-148.4822C571.6443,-147.3713 574.6389,-146.3184 577.5061,-145.5391 686.2578,-115.9806 723.8051,-151.2327 828.5061,-109.5391 829.9383,-108.9688 831.3673,-108.3143 832.7801,-107.5975"/>
<polygon fill="#ff0000" stroke="#ff0000" stroke-width=".2994" points="834.9779,-110.3592 841.7307,-102.1952 831.3607,-104.3662 834.9779,-110.3592"/>
</g>
<!-- 12 -->
<g id="node21" class="node">
<title>12</title>
<ellipse fill="#ffffff" stroke="#000000" cx="570.5061" cy="-89.033" rx="20.5122" ry="20.5122"/>
<text text-anchor="middle" x="570.5061" y="-86.833" font-family="Times,serif" font-size="9.00" fill="#000000">12</text>
</g>
<!-- &#45;1&#45;&gt;12 -->
<g id="edge40" class="edge">
<title>&#45;1&#45;&gt;12</title>
<path fill="none" stroke="#ff0000" stroke-width=".1725" d="M557.5918,-145.4308C559.181,-138.4904 561.4648,-128.5172 563.6711,-118.8818"/>
<polygon fill="#ff0000" stroke="#ff0000" stroke-width=".1725" points="567.0896,-119.6332 565.9101,-109.1043 560.2662,-118.0707 567.0896,-119.6332"/>
</g>
<!-- 17 -->
<g id="node26" class="node">
<title>17</title>
<ellipse fill="#ffffff" stroke="#000000" cx="629.5061" cy="-89.033" rx="20.5122" ry="20.5122"/>
<text text-anchor="middle" x="629.5061" y="-86.833" font-family="Times,serif" font-size="9.00" fill="#000000">17</text>
</g>
<!-- &#45;1&#45;&gt;17 -->
<g id="edge20" class="edge">
<title>&#45;1&#45;&gt;17</title>
<path fill="none" stroke="#00ff00" stroke-width=".1137" d="M565.7955,-145.4308C576.2196,-136.2032 592.7003,-121.6141 606.2879,-109.5862"/>
<polygon fill="#00ff00" stroke="#00ff00" stroke-width=".1137" points="608.7182,-112.1091 613.8861,-102.8601 604.0784,-106.8677 608.7182,-112.1091"/>
</g>
<!-- 19 -->
<g id="node28" class="node">
<title>19</title>
<ellipse fill="#ffffff" stroke="#000000" cx="401.5061" cy="-89.033" rx="20.5122" ry="20.5122"/>
<text text-anchor="middle" x="401.5061" y="-86.833" font-family="Times,serif" font-size="9.00" fill="#000000">19</text>
</g>
<!-- &#45;1&#45;&gt;19 -->
<g id="edge47" class="edge">
<title>&#45;1&#45;&gt;19</title>
<path fill="none" stroke="#00ff00" stroke-width=".4218" d="M542.3856,-150.9642C519.2535,-144.4054 470.0208,-129.2905 431.5061,-109.5391 429.9623,-108.7474 428.4041,-107.8892 426.8522,-106.9879"/>
<polygon fill="#00ff00" stroke="#00ff00" stroke-width=".4218" points="428.5053,-103.8925 418.1801,-101.5174 424.7705,-109.813 428.5053,-103.8925"/>
</g>
<!-- &#45;2 -->
<g id="node2" class="node">
<title>&#45;2</title>
<polygon fill="#d3d3d3" stroke="#000000" points="414.5061,-163.5391 388.5061,-163.5391 388.5061,-145.5391 414.5061,-145.5391 414.5061,-163.5391"/>
<text text-anchor="middle" x="401.5061" y="-152.3391" font-family="Times,serif" font-size="9.00" fill="#000000">&#45;2</text>
</g>
<!-- 4 -->
<g id="node13" class="node">
<title>4</title>
<ellipse fill="#ffffff" stroke="#000000" cx="456.5061" cy="-89.033" rx="16.0303" ry="16.0303"/>
<text text-anchor="middle" x="456.5061" y="-86.833" font-family="Times,serif" font-size="9.00" fill="#000000">4</text>
</g>
<!-- &#45;2&#45;&gt;4 -->
<g id="edge51" class="edge">
<title>&#45;2&#45;&gt;4</title>
<path fill="none" stroke="#ff0000" stroke-width=".1029" d="M409.1536,-145.4308C416.9239,-136.1762 429.2219,-121.529 439.3376,-109.481"/>
<polygon fill="#ff0000" stroke="#ff0000" stroke-width=".1029" points="442.1599,-111.5626 445.9097,-101.6535 436.799,-107.0615 442.1599,-111.5626"/>
</g>
<!-- 6 -->
<g id="node15" class="node">
<title>6</title>
<ellipse fill="#ffffff" stroke="#000000" cx="236.5061" cy="-89.033" rx="16.0303" ry="16.0303"/>
<text text-anchor="middle" x="236.5061" y="-86.833" font-family="Times,serif" font-size="9.00" fill="#000000">6</text>
</g>
<!-- &#45;2&#45;&gt;6 -->
<g id="edge48" class="edge">
<title>&#45;2&#45;&gt;6</title>
<path fill="none" stroke="#00ff00" stroke-width=".2293" d="M388.0431,-150.4775C355.4083,-140.5899 273.9174,-115.6324 262.5061,-109.5391 260.5283,-108.483 258.5497,-107.2728 256.6165,-105.9799"/>
<polygon fill="#00ff00" stroke="#00ff00" stroke-width=".2293" points="258.6887,-103.1593 248.5744,-100.0045 254.5138,-108.778 258.6887,-103.1593"/>
</g>
<!-- 7 -->
<g id="node16" class="node">
<title>7</title>
<ellipse fill="#ffffff" stroke="#000000" cx="287.5061" cy="-89.033" rx="16.0303" ry="16.0303"/>
<text text-anchor="middle" x="287.5061" y="-86.833" font-family="Times,serif" font-size="9.00" fill="#000000">7</text>
</g>
<!-- &#45;2&#45;&gt;7 -->
<g id="edge77" class="edge">
<title>&#45;2&#45;&gt;7</title>
<path fill="none" stroke="#00ff00" stroke-width=".2042" d="M388.3436,-148.9763C370.529,-141.207 338.0365,-126.1764 312.5061,-109.5391 311.0187,-108.5698 309.5174,-107.5271 308.0281,-106.4439"/>
<polygon fill="#00ff00" stroke="#00ff00" stroke-width=".2042" points="309.8483,-103.4244 299.8133,-100.0259 305.5387,-108.9406 309.8483,-103.4244"/>
</g>
<!-- &#45;2&#45;&gt;12 -->
<g id="edge58" class="edge">
<title>&#45;2&#45;&gt;12</title>
<path fill="none" stroke="#ff0000" stroke-width=".3373" d="M414.7603,-151.7049C440.2378,-145.9528 497.4256,-131.5568 541.5061,-109.5391 542.8507,-108.8675 544.2022,-108.1379 545.547,-107.3673"/>
<polygon fill="#ff0000" stroke="#ff0000" stroke-width=".3373" points="547.6258,-110.1931 554.1828,-101.871 543.8673,-104.2877 547.6258,-110.1931"/>
</g>
<!-- 13 -->
<g id="node22" class="node">
<title>13</title>
<ellipse fill="#ffffff" stroke="#000000" cx="688.5061" cy="-89.033" rx="20.5122" ry="20.5122"/>
<text text-anchor="middle" x="688.5061" y="-86.833" font-family="Times,serif" font-size="9.00" fill="#000000">13</text>
</g>
<!-- &#45;2&#45;&gt;13 -->
<g id="edge79" class="edge">
<title>&#45;2&#45;&gt;13</title>
<path fill="none" stroke="#00ff00" stroke-width=".1842" d="M414.6842,-154.2625C453.6528,-153.0276 571.1324,-146.2878 659.5061,-109.5391 660.9295,-108.9472 662.3515,-108.2754 663.7587,-107.5448"/>
<polygon fill="#00ff00" stroke="#00ff00" stroke-width=".1842" points="665.9757,-110.2923 672.6909,-102.0973 662.3309,-104.316 665.9757,-110.2923"/>
</g>
<!-- 14 -->
<g id="node23" class="node">
<title>14</title>
<ellipse fill="#ffffff" stroke="#000000" cx="342.5061" cy="-89.033" rx="20.5122" ry="20.5122"/>
<text text-anchor="middle" x="342.5061" y="-86.833" font-family="Times,serif" font-size="9.00" fill="#000000">14</text>
</g>
<!-- &#45;2&#45;&gt;14 -->
<g id="edge41" class="edge">
<title>&#45;2&#45;&gt;14</title>
<path fill="none" stroke="#ff0000" stroke-width=".3528" d="M393.3024,-145.4308C385.533,-136.8046 373.5437,-123.4933 363.1638,-111.9687"/>
<polygon fill="#ff0000" stroke="#ff0000" stroke-width=".3528" points="365.5995,-109.4432 356.3064,-104.3551 360.3982,-114.1279 365.5995,-109.4432"/>
</g>
<!-- 16 -->
<g id="node25" class="node">
<title>16</title>
<ellipse fill="#ffffff" stroke="#000000" cx="20.5061" cy="-89.033" rx="20.5122" ry="20.5122"/>
<text text-anchor="middle" x="20.5061" y="-86.833" font-family="Times,serif" font-size="9.00" fill="#000000">16</text>
</g>
<!-- &#45;2&#45;&gt;16 -->
<g id="edge64" class="edge">
<title>&#45;2&#45;&gt;16</title>
<path fill="none" stroke="#00ff00" stroke-width=".1918" d="M388.4934,-150.0789C383.2674,-148.4345 377.1533,-146.6931 371.5061,-145.5391 230.8516,-116.7971 185.0838,-159.5253 50.5061,-109.5391 48.8391,-108.9199 47.1755,-108.1885 45.5347,-107.377"/>
<polygon fill="#00ff00" stroke="#00ff00" stroke-width=".1918" points="46.9173,-104.1298 36.5229,-102.0788 43.3695,-110.1642 46.9173,-104.1298"/>
</g>
<!-- 18 -->
<g id="node27" class="node">
<title>18</title>
<ellipse fill="#ffffff" stroke="#000000" cx="511.5061" cy="-89.033" rx="20.5122" ry="20.5122"/>
<text text-anchor="middle" x="511.5061" y="-86.833" font-family="Times,serif" font-size="9.00" fill="#000000">18</text>
</g>
<!-- &#45;2&#45;&gt;18 -->
<g id="edge45" class="edge">
<title>&#45;2&#45;&gt;18</title>
<path fill="none" stroke="#00ff00" stroke-width=".32" d="M414.7349,-147.5566C430.7681,-138.9895 458.4963,-123.8369 481.5061,-109.5391 482.9797,-108.6234 484.4829,-107.6679 485.9923,-106.6915"/>
<polygon fill="#00ff00" stroke="#00ff00" stroke-width=".32" points="488.1536,-109.4576 494.5427,-101.0059 484.2776,-103.6286 488.1536,-109.4576"/>
</g>
<!-- &#45;2&#45;&gt;19 -->
<g id="edge35" class="edge">
<title>&#45;2&#45;&gt;19</title>
<path fill="none" stroke="#ff0000" stroke-width=".1665" d="M401.5061,-145.4308C401.5061,-138.7387 401.5061,-129.2268 401.5061,-119.917"/>
<polygon fill="#ff0000" stroke="#ff0000" stroke-width=".1665" points="405.0062,-119.6528 401.5061,-109.6528 398.0062,-119.6528 405.0062,-119.6528"/>
</g>
<!-- &#45;3 -->
<g id="node3" class="node">
<title>&#45;3</title>
<polygon fill="#d3d3d3" stroke="#000000" points="735.5061,-163.5391 709.5061,-163.5391 709.5061,-145.5391 735.5061,-145.5391 735.5061,-163.5391"/>
<text text-anchor="middle" x="722.5061" y="-152.3391" font-family="Times,serif" font-size="9.00" fill="#000000">&#45;3</text>
</g>
<!-- 9 -->
<g id="node18" class="node">
<title>9</title>
<ellipse fill="#ffffff" stroke="#000000" cx="743.5061" cy="-89.033" rx="16.0303" ry="16.0303"/>
<text text-anchor="middle" x="743.5061" y="-86.833" font-family="Times,serif" font-size="9.00" fill="#000000">9</text>
</g>
<!-- &#45;3&#45;&gt;9 -->
<g id="edge21" class="edge">
<title>&#45;3&#45;&gt;9</title>
<path fill="none" stroke="#00ff00" stroke-width=".3914" d="M725.4261,-145.4308C728.0146,-137.3561 731.9193,-125.1762 735.4383,-114.1993"/>
<polygon fill="#00ff00" stroke="#00ff00" stroke-width=".3914" points="738.7928,-115.2001 738.5127,-104.609 732.127,-113.0631 738.7928,-115.2001"/>
</g>
<!-- &#45;3&#45;&gt;10 -->
<g id="edge5" class="edge">
<title>&#45;3&#45;&gt;10</title>
<path fill="none" stroke="#ff0000" stroke-width=".1973" d="M733.0736,-145.4308C743.8476,-136.1444 760.9214,-121.4281 774.9267,-109.3567"/>
<polygon fill="#ff0000" stroke="#ff0000" stroke-width=".1973" points="777.4577,-111.7958 782.7473,-102.6159 772.8876,-106.4935 777.4577,-111.7958"/>
</g>
<!-- &#45;3&#45;&gt;11 -->
<g id="edge1" class="edge">
<title>&#45;3&#45;&gt;11</title>
<path fill="none" stroke="#ff0000" stroke-width=".2216" d="M735.6525,-149.9936C756.1141,-142.6925 796.5485,-127.3509 828.5061,-109.5391 829.819,-108.8074 831.1447,-108.0291 832.4691,-107.2197"/>
<polygon fill="#ff0000" stroke="#ff0000" stroke-width=".2216" points="834.5994,-110.0079 841.0355,-101.592 830.7559,-104.1575 834.5994,-110.0079"/>
</g>
<!-- &#45;3&#45;&gt;12 -->
<g id="edge95" class="edge">
<title>&#45;3&#45;&gt;12</title>
<path fill="none" stroke="#ff0000" stroke-width=".181" d="M709.4612,-151.0078C686.469,-144.5164 637.5635,-129.5026 599.5061,-109.5391 598.1751,-108.8409 596.8346,-108.0898 595.4986,-107.3021"/>
<polygon fill="#ff0000" stroke="#ff0000" stroke-width=".181" points="597.1925,-104.2297 586.8925,-101.7476 593.3966,-110.1111 597.1925,-104.2297"/>
</g>
<!-- &#45;3&#45;&gt;18 -->
<g id="edge42" class="edge">
<title>&#45;3&#45;&gt;18</title>
<path fill="none" stroke="#00ff00" stroke-width=".1254" d="M709.4827,-151.9761C673.1705,-144.7268 571.4382,-123.6854 540.5061,-109.5391 539.1392,-108.914 537.7698,-108.222 536.4105,-107.4816"/>
<polygon fill="#00ff00" stroke="#00ff00" stroke-width=".1254" points="538.0675,-104.3906 527.7262,-102.0869 534.3738,-110.3367 538.0675,-104.3906"/>
</g>
<!-- &#45;3&#45;&gt;19 -->
<g id="edge67" class="edge">
<title>&#45;3&#45;&gt;19</title>
<path fill="none" stroke="#00ff00" stroke-width=".1194" d="M709.3775,-152.4511C697.826,-150.6175 680.5524,-147.8844 665.5061,-145.5391 561.5379,-129.3336 529.3742,-148.1893 431.5061,-109.5391 429.8521,-108.8859 428.1987,-108.128 426.5656,-107.2962"/>
<polygon fill="#00ff00" stroke="#00ff00" stroke-width=".1194" points="427.958,-104.0518 417.5754,-101.9416 424.376,-110.0659 427.958,-104.0518"/>
</g>
<!-- &#45;4 -->
<g id="node4" class="node">
<title>&#45;4</title>
<polygon fill="#d3d3d3" stroke="#000000" points="318.5061,-163.5391 292.5061,-163.5391 292.5061,-145.5391 318.5061,-145.5391 318.5061,-163.5391"/>
<text text-anchor="middle" x="305.5061" y="-152.3391" font-family="Times,serif" font-size="9.00" fill="#000000">&#45;4</text>
</g>
<!-- &#45;4&#45;&gt;4 -->
<g id="edge29" class="edge">
<title>&#45;4&#45;&gt;4</title>
<path fill="none" stroke="#ff0000" stroke-width=".249" d="M318.9559,-148.8999C321.7697,-147.7587 324.7262,-146.588 327.5061,-145.5391 373.2703,-128.2725 388.8199,-133.4218 431.5061,-109.5391 433.0554,-108.6723 434.6034,-107.7067 436.1268,-106.68"/>
<polygon fill="#ff0000" stroke="#ff0000" stroke-width=".249" points="438.5659,-109.223 444.4208,-100.3928 434.3373,-103.6446 438.5659,-109.223"/>
</g>
<!-- &#45;4&#45;&gt;5 -->
<g id="edge36" class="edge">
<title>&#45;4&#45;&gt;5</title>
<path fill="none" stroke="#ff0000" stroke-width=".2383" d="M292.4699,-152.5515C265.0701,-147.9929 200.0345,-135.1517 151.5061,-109.5391 149.7561,-108.6155 148.014,-107.5574 146.3109,-106.4195"/>
<polygon fill="#ff0000" stroke="#ff0000" stroke-width=".2383" points="148.3459,-103.5701 138.2631,-100.3162 144.1161,-109.1476 148.3459,-103.5701"/>
</g>
<!-- &#45;4&#45;&gt;7 -->
<g id="edge37" class="edge">
<title>&#45;4&#45;&gt;7</title>
<path fill="none" stroke="#ff0000" stroke-width=".31" d="M303.0033,-145.4308C300.8218,-137.4918 297.5498,-125.5843 294.5737,-114.7536"/>
<polygon fill="#ff0000" stroke="#ff0000" stroke-width=".31" points="297.8808,-113.5793 291.8562,-104.8641 291.131,-115.4341 297.8808,-113.5793"/>
</g>
<!-- &#45;4&#45;&gt;12 -->
<g id="edge55" class="edge">
<title>&#45;4&#45;&gt;12</title>
<path fill="none" stroke="#ff0000" stroke-width=".2478" d="M318.8356,-148.5359C321.6581,-147.4211 324.6485,-146.3531 327.5061,-145.5391 420.2641,-119.1179 452.3403,-146.3029 541.5061,-109.5391 542.9313,-108.9515 544.3547,-108.2831 545.763,-107.5553"/>
<polygon fill="#ff0000" stroke="#ff0000" stroke-width=".2478" points="547.9763,-110.3056 554.6989,-102.1168 544.3369,-104.326 547.9763,-110.3056"/>
</g>
<!-- &#45;4&#45;&gt;16 -->
<g id="edge82" class="edge">
<title>&#45;4&#45;&gt;16</title>
<path fill="none" stroke="#ff0000" stroke-width=".2997" d="M292.3853,-152.9679C246.7916,-147.3933 95.5684,-127.9113 50.5061,-109.5391 48.8594,-108.8677 47.2116,-108.0956 45.583,-107.253"/>
<polygon fill="#ff0000" stroke="#ff0000" stroke-width=".2997" points="46.9809,-104.0103 36.6048,-101.8684 43.3805,-110.0134 46.9809,-104.0103"/>
</g>
<!-- &#45;4&#45;&gt;18 -->
<g id="edge78" class="edge">
<title>&#45;4&#45;&gt;18</title>
<path fill="none" stroke="#00ff00" stroke-width=".2518" d="M318.8775,-148.6747C321.697,-147.5498 324.6756,-146.4426 327.5061,-145.5391 394.4672,-124.1649 417.172,-137.8545 481.5061,-109.5391 483.1337,-108.8227 484.7666,-108.0155 486.3839,-107.1461"/>
<polygon fill="#00ff00" stroke="#00ff00" stroke-width=".2518" points="488.6173,-109.8835 495.3305,-101.6869 484.9711,-103.9081 488.6173,-109.8835"/>
</g>
<!-- &#45;4&#45;&gt;19 -->
<g id="edge38" class="edge">
<title>&#45;4&#45;&gt;19</title>
<path fill="none" stroke="#ff0000" stroke-width=".5386" d="M318.9177,-145.6683C332.4896,-136.6593 354.0466,-122.2619 372.5061,-109.5391 373.7437,-108.6861 375.0085,-107.8097 376.2841,-106.922"/>
<polygon fill="#ff0000" stroke="#ff0000" stroke-width=".5386" points="378.5085,-109.637 384.6859,-101.0294 374.489,-103.906 378.5085,-109.637"/>
</g>
<!-- &#45;5 -->
<g id="node5" class="node">
<title>&#45;5</title>
<polygon fill="#d3d3d3" stroke="#000000" points="656.5061,-163.5391 630.5061,-163.5391 630.5061,-145.5391 656.5061,-145.5391 656.5061,-163.5391"/>
<text text-anchor="middle" x="643.5061" y="-152.3391" font-family="Times,serif" font-size="9.00" fill="#000000">&#45;5</text>
</g>
<!-- &#45;5&#45;&gt;7 -->
<g id="edge66" class="edge">
<title>&#45;5&#45;&gt;7</title>
<path fill="none" stroke="#ff0000" stroke-width=".1223" d="M630.2071,-148.4232C627.3824,-147.3166 624.3834,-146.2804 621.5061,-145.5391 487.616,-111.0445 439.7746,-163.5684 312.5061,-109.5391 310.6847,-108.7658 308.8908,-107.8167 307.1515,-106.7549"/>
<polygon fill="#ff0000" stroke="#ff0000" stroke-width=".1223" points="309.167,-103.8926 299.0342,-100.798 305.0255,-109.5361 309.167,-103.8926"/>
</g>
<!-- &#45;5&#45;&gt;9 -->
<g id="edge86" class="edge">
<title>&#45;5&#45;&gt;9</title>
<path fill="none" stroke="#00ff00" stroke-width=".3244" d="M656.6071,-147.4506C671.8682,-139.0192 697.6506,-124.2303 718.5061,-109.5391 719.9574,-108.5167 721.4317,-107.434 722.9011,-106.3215"/>
<polygon fill="#00ff00" stroke="#00ff00" stroke-width=".3244" points="725.4146,-108.7949 731.07,-99.8357 721.0619,-103.3127 725.4146,-108.7949"/>
</g>
<!-- &#45;5&#45;&gt;10 -->
<g id="edge17" class="edge">
<title>&#45;5&#45;&gt;10</title>
<path fill="none" stroke="#00ff00" stroke-width=".392" d="M656.7346,-150.9829C680.0566,-144.453 729.6913,-129.3815 768.5061,-109.5391 770.0509,-108.7494 771.6099,-107.8927 773.1624,-106.9926"/>
<polygon fill="#00ff00" stroke="#00ff00" stroke-width=".392" points="775.2427,-109.8187 781.8363,-101.5255 771.5102,-103.8968 775.2427,-109.8187"/>
</g>
<!-- &#45;5&#45;&gt;11 -->
<g id="edge12" class="edge">
<title>&#45;5&#45;&gt;11</title>
<path fill="none" stroke="#ff0000" stroke-width=".2598" d="M656.7444,-151.9923C693.6557,-144.7857 797.0662,-123.8458 828.5061,-109.5391 829.8741,-108.9166 831.2446,-108.2267 832.6045,-107.4879"/>
<polygon fill="#ff0000" stroke="#ff0000" stroke-width=".2598" points="834.6389,-110.3447 841.2915,-102.0989 830.9488,-104.3963 834.6389,-110.3447"/>
</g>
<!-- &#45;5&#45;&gt;12 -->
<g id="edge71" class="edge">
<title>&#45;5&#45;&gt;12</title>
<path fill="none" stroke="#ff0000" stroke-width=".2146" d="M633.3558,-145.4308C623.0725,-136.2032 606.8145,-121.6141 593.4105,-109.5862"/>
<polygon fill="#ff0000" stroke="#ff0000" stroke-width=".2146" points="595.6954,-106.9339 585.915,-102.8601 591.0203,-112.1438 595.6954,-106.9339"/>
</g>
<!-- &#45;5&#45;&gt;13 -->
<g id="edge16" class="edge">
<title>&#45;5&#45;&gt;13</title>
<path fill="none" stroke="#00ff00" stroke-width=".1884" d="M649.7632,-145.4308C655.2512,-137.4418 663.5,-125.4342 670.9776,-114.5491"/>
<polygon fill="#00ff00" stroke="#00ff00" stroke-width=".1884" points="673.9642,-116.3827 676.7417,-106.1584 668.1945,-112.4191 673.9642,-116.3827"/>
</g>
<!-- &#45;5&#45;&gt;14 -->
<g id="edge54" class="edge">
<title>&#45;5&#45;&gt;14</title>
<path fill="none" stroke="#00ff00" stroke-width=".1252" d="M630.1912,-148.4834C627.3676,-147.3724 624.3731,-146.3192 621.5061,-145.5391 513.1872,-116.0656 475.7867,-151.0992 371.5061,-109.5391 370.0741,-108.9684 368.6452,-108.3136 367.2325,-107.5965"/>
<polygon fill="#00ff00" stroke="#00ff00" stroke-width=".1252" points="368.6521,-104.3652 358.2822,-102.1934 365.0343,-110.3579 368.6521,-104.3652"/>
</g>
<!-- 15 -->
<g id="node24" class="node">
<title>15</title>
<ellipse fill="#ffffff" stroke="#000000" cx="181.5061" cy="-89.033" rx="20.5122" ry="20.5122"/>
<text text-anchor="middle" x="181.5061" y="-86.833" font-family="Times,serif" font-size="9.00" fill="#000000">15</text>
</g>
<!-- &#45;5&#45;&gt;15 -->
<g id="edge33" class="edge">
<title>&#45;5&#45;&gt;15</title>
<path fill="none" stroke="#ff0000" stroke-width=".1271" d="M630.223,-148.3598C627.3971,-147.2578 624.3936,-146.2395 621.5061,-145.5391 443.737,-102.4222 383.7381,-171.1596 211.5061,-109.5391 209.8317,-108.9401 208.1624,-108.2243 206.5172,-107.4249"/>
<polygon fill="#ff0000" stroke="#ff0000" stroke-width=".1271" points="207.8945,-104.1763 197.4933,-102.1599 204.3669,-110.2225 207.8945,-104.1763"/>
</g>
<!-- &#45;5&#45;&gt;17 -->
<g id="edge32" class="edge">
<title>&#45;5&#45;&gt;17</title>
<path fill="none" stroke="#00ff00" stroke-width=".1378" d="M641.5595,-145.4308C640.0918,-138.5635 637.9895,-128.7268 635.9504,-119.1861"/>
<polygon fill="#00ff00" stroke="#00ff00" stroke-width=".1378" points="639.3085,-118.1519 633.7957,-109.1043 632.4631,-119.615 639.3085,-118.1519"/>
</g>
<!-- &#45;6 -->
<g id="node6" class="node">
<title>&#45;6</title>
<polygon fill="#d3d3d3" stroke="#000000" points="612.5061,-163.5391 586.5061,-163.5391 586.5061,-145.5391 612.5061,-145.5391 612.5061,-163.5391"/>
<text text-anchor="middle" x="599.5061" y="-152.3391" font-family="Times,serif" font-size="9.00" fill="#000000">&#45;6</text>
</g>
<!-- &#45;6&#45;&gt;4 -->
<g id="edge27" class="edge">
<title>&#45;6&#45;&gt;4</title>
<path fill="none" stroke="#00ff00" stroke-width=".1295" d="M586.5025,-149.1452C583.5513,-147.9418 580.4261,-146.6836 577.5061,-145.5391 535.0805,-128.9105 520.9858,-132.2942 481.5061,-109.5391 479.968,-108.6526 478.4284,-107.6722 476.9111,-106.6345"/>
<polygon fill="#00ff00" stroke="#00ff00" stroke-width=".1295" points="478.706,-103.6018 468.6315,-100.3223 474.462,-109.1685 478.706,-103.6018"/>
</g>
<!-- &#45;6&#45;&gt;5 -->
<g id="edge53" class="edge">
<title>&#45;6&#45;&gt;5</title>
<path fill="none" stroke="#ff0000" stroke-width=".3359" d="M586.2247,-148.3525C583.3988,-147.251 580.3947,-146.2347 577.5061,-145.5391 392.7786,-101.0545 327.56,-181.0102 151.5061,-109.5391 149.6726,-108.7948 147.8701,-107.8667 146.1247,-106.8194"/>
<polygon fill="#ff0000" stroke="#ff0000" stroke-width=".3359" points="148.1376,-103.9555 137.9957,-100.8907 144.0127,-109.6111 148.1376,-103.9555"/>
</g>
<!-- &#45;6&#45;&gt;9 -->
<g id="edge92" class="edge">
<title>&#45;6&#45;&gt;9</title>
<path fill="none" stroke="#00ff00" stroke-width=".1121" d="M612.5068,-149.1379C615.4582,-147.9348 618.5842,-146.6786 621.5061,-145.5391 664.3478,-128.8312 678.6267,-132.4345 718.5061,-109.5391 720.0457,-108.6552 721.5864,-107.6767 723.1045,-106.6406"/>
<polygon fill="#00ff00" stroke="#00ff00" stroke-width=".1121" points="725.5523,-109.1758 731.3861,-100.3316 721.3104,-103.6075 725.5523,-109.1758"/>
</g>
<!-- &#45;6&#45;&gt;11 -->
<g id="edge3" class="edge">
<title>&#45;6&#45;&gt;11</title>
<path fill="none" stroke="#00ff00" stroke-width=".1538" d="M612.8391,-148.5481C615.6614,-147.4324 618.6508,-146.3609 621.5061,-145.5391 711.2438,-119.7099 742.274,-145.3724 828.5061,-109.5391 829.9296,-108.9476 831.3517,-108.276 832.759,-107.5457"/>
<polygon fill="#00ff00" stroke="#00ff00" stroke-width=".1538" points="834.9758,-110.2934 841.6915,-102.0989 831.3314,-104.3168 834.9758,-110.2934"/>
</g>
<!-- &#45;6&#45;&gt;12 -->
<g id="edge59" class="edge">
<title>&#45;6&#45;&gt;12</title>
<path fill="none" stroke="#ff0000" stroke-width=".1462" d="M595.4738,-145.4308C592.2422,-138.1312 587.5253,-127.4766 583.0594,-117.3887"/>
<polygon fill="#ff0000" stroke="#ff0000" stroke-width=".1462" points="586.1597,-115.7457 578.9111,-108.0186 579.7589,-118.5794 586.1597,-115.7457"/>
</g>
<!-- &#45;6&#45;&gt;13 -->
<g id="edge6" class="edge">
<title>&#45;6&#45;&gt;13</title>
<path fill="none" stroke="#ff0000" stroke-width=".2747" d="M611.8812,-145.4308C625.1407,-135.6714 646.5482,-119.915 663.3697,-107.534"/>
<polygon fill="#ff0000" stroke="#ff0000" stroke-width=".2747" points="665.7019,-110.1633 671.6809,-101.4168 661.5524,-104.5257 665.7019,-110.1633"/>
</g>
<!-- &#45;6&#45;&gt;17 -->
<g id="edge72" class="edge">
<title>&#45;6&#45;&gt;17</title>
<path fill="none" stroke="#ff0000" stroke-width=".2173" d="M603.6775,-145.4308C607.0796,-138.0021 612.0731,-127.0987 616.7648,-116.8541"/>
<polygon fill="#ff0000" stroke="#ff0000" stroke-width=".2173" points="619.9527,-118.2989 620.9344,-107.7496 613.5883,-115.3842 619.9527,-118.2989"/>
</g>
<!-- &#45;6&#45;&gt;18 -->
<g id="edge65" class="edge">
<title>&#45;6&#45;&gt;18</title>
<path fill="none" stroke="#00ff00" stroke-width=".352" d="M587.2701,-145.4308C574.1595,-135.6714 552.9926,-119.915 536.36,-107.534"/>
<polygon fill="#00ff00" stroke="#00ff00" stroke-width=".352" points="538.2538,-104.5804 528.1423,-101.4168 534.0739,-110.1955 538.2538,-104.5804"/>
</g>
<!-- &#45;7 -->
<g id="node7" class="node">
<title>&#45;7</title>
<polygon fill="#d3d3d3" stroke="#000000" points="194.5061,-163.5391 168.5061,-163.5391 168.5061,-145.5391 194.5061,-145.5391 194.5061,-163.5391"/>
<text text-anchor="middle" x="181.5061" y="-152.3391" font-family="Times,serif" font-size="9.00" fill="#000000">&#45;7</text>
</g>
<!-- &#45;7&#45;&gt;5 -->
<g id="edge46" class="edge">
<title>&#45;7&#45;&gt;5</title>
<path fill="none" stroke="#ff0000" stroke-width=".3321" d="M173.8586,-145.4308C166.0883,-136.1762 153.7903,-121.529 143.6746,-109.481"/>
<polygon fill="#ff0000" stroke="#ff0000" stroke-width=".3321" points="146.2132,-107.0615 137.1025,-101.6535 140.8523,-111.5626 146.2132,-107.0615"/>
</g>
<!-- &#45;7&#45;&gt;6 -->
<g id="edge22" class="edge">
<title>&#45;7&#45;&gt;6</title>
<path fill="none" stroke="#00ff00" stroke-width=".1013" d="M189.1536,-145.4308C196.9239,-136.1762 209.2219,-121.529 219.3376,-109.481"/>
<polygon fill="#00ff00" stroke="#00ff00" stroke-width=".1013" points="222.1599,-111.5626 225.9097,-101.6535 216.799,-107.0615 222.1599,-111.5626"/>
</g>
<!-- &#45;7&#45;&gt;8 -->
<g id="edge93" class="edge">
<title>&#45;7&#45;&gt;8</title>
<path fill="none" stroke="#00ff00" stroke-width=".263" d="M168.3923,-147.9654C152.2359,-139.6864 124.1473,-124.7019 101.5061,-109.5391 99.8223,-108.4115 98.1093,-107.2056 96.407,-105.9644"/>
<polygon fill="#00ff00" stroke="#00ff00" stroke-width=".263" points="98.2388,-102.9591 88.1698,-99.6627 93.9855,-108.5187 98.2388,-102.9591"/>
</g>
<!-- &#45;7&#45;&gt;9 -->
<g id="edge73" class="edge">
<title>&#45;7&#45;&gt;9</title>
<path fill="none" stroke="#ff0000" stroke-width=".1724" d="M194.7078,-153.3512C214.1486,-151.607 251.6236,-148.2649 283.5061,-145.5391 380.1507,-137.2764 628.6008,-145.9463 718.5061,-109.5391 720.3402,-108.7964 722.1432,-107.8694 723.8889,-106.823"/>
<polygon fill="#ff0000" stroke="#ff0000" stroke-width=".1724" points="726.0001,-109.6153 732.0185,-100.8958 721.8762,-103.959 726.0001,-109.6153"/>
</g>
<!-- &#45;7&#45;&gt;12 -->
<g id="edge76" class="edge">
<title>&#45;7&#45;&gt;12</title>
<path fill="none" stroke="#00ff00" stroke-width=".2676" d="M194.6112,-153.2828C255.4144,-147.4028 508.4728,-122.3484 541.5061,-109.5391 542.9434,-108.9818 544.3765,-108.3377 545.7926,-107.6292"/>
<polygon fill="#00ff00" stroke="#00ff00" stroke-width=".2676" points="547.9785,-110.3995 554.7539,-102.2541 544.3779,-104.3965 547.9785,-110.3995"/>
</g>
<!-- &#45;7&#45;&gt;15 -->
<g id="edge96" class="edge">
<title>&#45;7&#45;&gt;15</title>
<path fill="none" stroke="#ff0000" stroke-width=".2472" d="M181.5061,-145.4308C181.5061,-138.7387 181.5061,-129.2268 181.5061,-119.917"/>
<polygon fill="#ff0000" stroke="#ff0000" stroke-width=".2472" points="185.0062,-119.6528 181.5061,-109.6528 178.0062,-119.6528 185.0062,-119.6528"/>
</g>
<!-- &#45;7&#45;&gt;16 -->
<g id="edge74" class="edge">
<title>&#45;7&#45;&gt;16</title>
<path fill="none" stroke="#00ff00" stroke-width=".1852" d="M168.3978,-151.2944C144.2732,-145.0527 91.5551,-130.1452 50.5061,-109.5391 48.9556,-108.7608 47.392,-107.913 45.836,-107.0197"/>
<polygon fill="#00ff00" stroke="#00ff00" stroke-width=".1852" points="47.4833,-103.9215 37.1522,-101.5724 43.7635,-109.8513 47.4833,-103.9215"/>
</g>
<!-- &#45;8 -->
<g id="node8" class="node">
<title>&#45;8</title>
<polygon fill="#d3d3d3" stroke="#000000" points="362.5061,-163.5391 336.5061,-163.5391 336.5061,-145.5391 362.5061,-145.5391 362.5061,-163.5391"/>
<text text-anchor="middle" x="349.5061" y="-152.3391" font-family="Times,serif" font-size="9.00" fill="#000000">&#45;8</text>
</g>
<!-- &#45;8&#45;&gt;6 -->
<g id="edge84" class="edge">
<title>&#45;8&#45;&gt;6</title>
<path fill="none" stroke="#00ff00" stroke-width=".1045" d="M336.4005,-148.7172C318.9894,-140.7707 287.5186,-125.6624 262.5061,-109.5391 260.8028,-108.4412 259.0757,-107.2568 257.3635,-106.0306"/>
<polygon fill="#00ff00" stroke="#00ff00" stroke-width=".1045" points="259.1873,-103.0207 249.1074,-99.7578 254.9524,-108.5944 259.1873,-103.0207"/>
</g>
<!-- &#45;8&#45;&gt;7 -->
<g id="edge89" class="edge">
<title>&#45;8&#45;&gt;7</title>
<path fill="none" stroke="#00ff00" stroke-width=".1035" d="M340.8853,-145.4308C331.9327,-135.9719 317.6481,-120.8795 306.108,-108.6868"/>
<polygon fill="#00ff00" stroke="#00ff00" stroke-width=".1035" points="308.4204,-106.0384 299.0044,-101.1815 303.3365,-110.8502 308.4204,-106.0384"/>
</g>
<!-- &#45;8&#45;&gt;10 -->
<g id="edge19" class="edge">
<title>&#45;8&#45;&gt;10</title>
<path fill="none" stroke="#ff0000" stroke-width=".3157" d="M362.5075,-150.0225C367.732,-148.3702 373.8479,-146.6383 379.5061,-145.5391 549.9476,-112.4293 605.1644,-168.4124 768.5061,-109.5391 770.179,-108.9361 771.8473,-108.2173 773.4916,-107.4155"/>
<polygon fill="#ff0000" stroke="#ff0000" stroke-width=".3157" points="775.6449,-110.2111 782.5132,-102.1441 772.1133,-104.1672 775.6449,-110.2111"/>
</g>
<!-- &#45;8&#45;&gt;14 -->
<g id="edge39" class="edge">
<title>&#45;8&#45;&gt;14</title>
<path fill="none" stroke="#00ff00" stroke-width=".1615" d="M348.5328,-145.4308C347.81,-138.6668 346.7793,-129.0219 345.7743,-119.6167"/>
<polygon fill="#00ff00" stroke="#00ff00" stroke-width=".1615" points="349.2524,-119.2243 344.7095,-109.6528 342.292,-119.9681 349.2524,-119.2243"/>
</g>
<!-- &#45;8&#45;&gt;15 -->
<g id="edge44" class="edge">
<title>&#45;8&#45;&gt;15</title>
<path fill="none" stroke="#ff0000" stroke-width=".1364" d="M336.082,-148.8301C333.2663,-147.694 330.3026,-146.5429 327.5061,-145.5391 276.6987,-127.3022 260.1074,-133.0315 211.5061,-109.5391 209.9441,-108.7841 208.3715,-107.9546 206.8086,-107.0755"/>
<polygon fill="#ff0000" stroke="#ff0000" stroke-width=".1364" points="208.4461,-103.9724 198.1048,-101.6686 204.7523,-109.9185 208.4461,-103.9724"/>
</g>
<!-- &#45;8&#45;&gt;16 -->
<g id="edge23" class="edge">
<title>&#45;8&#45;&gt;16</title>
<path fill="none" stroke="#00ff00" stroke-width=".2681" d="M336.1994,-148.4528C333.3752,-147.344 330.3784,-146.2994 327.5061,-145.5391 207.4933,-113.77 166.5002,-153.7853 50.5061,-109.5391 48.8446,-108.9053 47.1852,-108.1625 45.5478,-107.3423"/>
<polygon fill="#00ff00" stroke="#00ff00" stroke-width=".2681" points="46.9344,-104.0962 36.5451,-102.0199 43.372,-110.122 46.9344,-104.0962"/>
</g>
<!-- &#45;8&#45;&gt;17 -->
<g id="edge68" class="edge">
<title>&#45;8&#45;&gt;17</title>
<path fill="none" stroke="#00ff00" stroke-width=".2627" d="M362.5501,-150.2234C367.7805,-148.5988 373.8894,-146.8333 379.5061,-145.5391 476.4819,-123.194 508.4046,-147.2342 600.5061,-109.5391 601.9328,-108.9552 603.3574,-108.2898 604.7667,-107.5643"/>
<polygon fill="#00ff00" stroke="#00ff00" stroke-width=".2627" points="606.9767,-110.317 613.7058,-102.1335 603.3421,-104.3345 606.9767,-110.317"/>
</g>
<!-- &#45;8&#45;&gt;18 -->
<g id="edge83" class="edge">
<title>&#45;8&#45;&gt;18</title>
<path fill="none" stroke="#00ff00" stroke-width=".123" d="M362.5838,-150.5769C391.4674,-141.7461 459.855,-120.3761 481.5061,-109.5391 483.0575,-108.7626 484.6218,-107.9162 486.1783,-107.0241"/>
<polygon fill="#00ff00" stroke="#00ff00" stroke-width=".123" points="488.2496,-109.8565 494.8638,-101.5798 484.5318,-103.9254 488.2496,-109.8565"/>
</g>
<!-- &#45;8&#45;&gt;19 -->
<g id="edge56" class="edge">
<title>&#45;8&#45;&gt;19</title>
<path fill="none" stroke="#ff0000" stroke-width=".1606" d="M356.7365,-145.4308C363.3835,-137.0573 373.535,-124.2691 382.4919,-112.9858"/>
<polygon fill="#ff0000" stroke="#ff0000" stroke-width=".1606" points="385.2594,-115.1289 388.7355,-105.1205 379.7768,-110.7767 385.2594,-115.1289"/>
</g>
<!-- 0 -->
<g id="node9" class="node">
<title>0</title>
<ellipse fill="#add8e6" stroke="#000000" cx="287.5061" cy="-16.2635" rx="16.0303" ry="16.0303"/>
<text text-anchor="middle" x="287.5061" y="-14.0635" font-family="Times,serif" font-size="9.00" fill="#000000">0</text>
</g>
<!-- 1 -->
<g id="node10" class="node">
<title>1</title>
<ellipse fill="#add8e6" stroke="#000000" cx="236.5061" cy="-16.2635" rx="16.0303" ry="16.0303"/>
<text text-anchor="middle" x="236.5061" y="-14.0635" font-family="Times,serif" font-size="9.00" fill="#000000">1</text>
</g>
<!-- 2 -->
<g id="node11" class="node">
<title>2</title>
<ellipse fill="#add8e6" stroke="#000000" cx="456.5061" cy="-16.2635" rx="16.0303" ry="16.0303"/>
<text text-anchor="middle" x="456.5061" y="-14.0635" font-family="Times,serif" font-size="9.00" fill="#000000">2</text>
</g>
<!-- 3 -->
<g id="node12" class="node">
<title>3</title>
<ellipse fill="#add8e6" stroke="#000000" cx="570.5061" cy="-16.2635" rx="16.0303" ry="16.0303"/>
<text text-anchor="middle" x="570.5061" y="-14.0635" font-family="Times,serif" font-size="9.00" fill="#000000">3</text>
</g>
<!-- 4&#45;&gt;0 -->
<g id="edge18" class="edge">
<title>4&#45;&gt;0</title>
<path fill="none" stroke="#ff0000" stroke-width=".3838" d="M444.3974,-77.7145C440.4852,-74.4491 435.9942,-71.0821 431.5061,-68.5269 392.8073,-46.4947 343.1296,-30.9254 313.3893,-22.7899"/>
<polygon fill="#ff0000" stroke="#ff0000" stroke-width=".3838" points="313.9553,-19.3188 303.3916,-20.1308 312.156,-26.0837 313.9553,-19.3188"/>
</g>
<!-- 4&#45;&gt;1 -->
<g id="edge69" class="edge">
<title>4&#45;&gt;1</title>
<path fill="none" stroke="#00ff00" stroke-width=".3658" d="M444.8553,-77.5392C440.8949,-74.1871 436.2612,-70.8146 431.5061,-68.5269 362.3024,-35.2323 333.6974,-61.3276 262.5061,-32.5269 261.2845,-32.0327 260.0561,-31.4821 258.8337,-30.8905"/>
<polygon fill="#00ff00" stroke="#00ff00" stroke-width=".3658" points="260.223,-27.6567 249.7899,-25.8127 256.7959,-33.7604 260.223,-27.6567"/>
</g>
<!-- 4&#45;&gt;2 -->
<g id="edge70" class="edge">
<title>4&#45;&gt;2</title>
<path fill="none" stroke="#ff0000" stroke-width=".1541" d="M456.5061,-72.5205C456.5061,-63.7747 456.5061,-52.8192 456.5061,-42.9054"/>
<polygon fill="#ff0000" stroke="#ff0000" stroke-width=".1541" points="460.0062,-42.7106 456.5061,-32.7106 453.0062,-42.7107 460.0062,-42.7106"/>
</g>
<!-- 4&#45;&gt;3 -->
<g id="edge11" class="edge">
<title>4&#45;&gt;3</title>
<path fill="none" stroke="#ff0000" stroke-width=".1116" d="M468.925,-78.2057C472.8498,-74.9604 477.27,-71.4811 481.5061,-68.5269 502.9081,-53.6014 528.7587,-38.7457 547.0723,-28.7095"/>
<polygon fill="#ff0000" stroke="#ff0000" stroke-width=".1116" points="548.7747,-31.7679 555.8986,-23.9258 545.4391,-25.6137 548.7747,-31.7679"/>
</g>
<!-- 5&#45;&gt;0 -->
<g id="edge87" class="edge">
<title>5&#45;&gt;0</title>
<path fill="none" stroke="#ff0000" stroke-width=".2739" d="M138.3111,-77.8391C142.2798,-74.503 146.8794,-71.0642 151.5061,-68.5269 196.6092,-43.7917 214.9134,-54.327 261.5061,-32.5269 262.6997,-31.9685 263.9055,-31.366 265.11,-30.7332"/>
<polygon fill="#ff0000" stroke="#ff0000" stroke-width=".2739" points="267.2028,-33.5653 274.0936,-25.5175 263.6881,-27.5116 267.2028,-33.5653"/>
</g>
<!-- 5&#45;&gt;1 -->
<g id="edge24" class="edge">
<title>5&#45;&gt;1</title>
<path fill="none" stroke="#00ff00" stroke-width=".4819" d="M138.9622,-78.2585C142.8885,-75.0153 147.3002,-71.524 151.5061,-68.5269 171.7421,-54.1071 195.9864,-39.4387 213.3943,-29.3272"/>
<polygon fill="#00ff00" stroke="#00ff00" stroke-width=".4819" points="215.3697,-32.2287 222.2932,-24.209 211.8797,-26.1607 215.3697,-32.2287"/>
</g>
<!-- 6&#45;&gt;0 -->
<g id="edge81" class="edge">
<title>6&#45;&gt;0</title>
<path fill="none" stroke="#00ff00" stroke-width=".3884" d="M245.8603,-75.686C253.2188,-65.1865 263.6245,-50.339 272.1934,-38.1124"/>
<polygon fill="#00ff00" stroke="#00ff00" stroke-width=".3884" points="275.1654,-39.9702 278.0385,-29.7723 269.433,-35.9527 275.1654,-39.9702"/>
</g>
<!-- 6&#45;&gt;1 -->
<g id="edge75" class="edge">
<title>6&#45;&gt;1</title>
<path fill="none" stroke="#00ff00" stroke-width=".3811" d="M236.5061,-72.5205C236.5061,-63.7747 236.5061,-52.8192 236.5061,-42.9054"/>
<polygon fill="#00ff00" stroke="#00ff00" stroke-width=".3811" points="240.0062,-42.7106 236.5061,-32.7106 233.0062,-42.7107 240.0062,-42.7106"/>
</g>
<!-- 6&#45;&gt;2 -->
<g id="edge2" class="edge">
<title>6&#45;&gt;2</title>
<path fill="none" stroke="#ff0000" stroke-width=".1282" d="M248.5002,-77.9181C252.6852,-74.5071 257.5744,-71.0041 262.5061,-68.5269 318.3945,-40.4545 391.1621,-26.0677 429.7486,-19.9668"/>
<polygon fill="#ff0000" stroke="#ff0000" stroke-width=".1282" points="430.763,-23.3532 440.1272,-18.3971 429.7162,-16.432 430.763,-23.3532"/>
</g>
<!-- 6&#45;&gt;3 -->
<g id="edge62" class="edge">
<title>6&#45;&gt;3</title>
<path fill="none" stroke="#00ff00" stroke-width=".1391" d="M248.362,-77.625C252.5378,-74.1944 257.4565,-70.7539 262.5061,-68.5269 352.7582,-28.7232 384.3191,-49.3933 481.5061,-32.5269 502.6525,-28.8571 526.5804,-24.4715 544.296,-21.1797"/>
<polygon fill="#00ff00" stroke="#00ff00" stroke-width=".1391" points="545.2544,-24.5614 554.4434,-19.2876 543.9712,-17.68 545.2544,-24.5614"/>
</g>
<!-- 7&#45;&gt;0 -->
<g id="edge61" class="edge">
<title>7&#45;&gt;0</title>
<path fill="none" stroke="#00ff00" stroke-width=".3068" d="M287.5061,-72.5205C287.5061,-63.7747 287.5061,-52.8192 287.5061,-42.9054"/>
<polygon fill="#00ff00" stroke="#00ff00" stroke-width=".3068" points="291.0062,-42.7106 287.5061,-32.7106 284.0062,-42.7107 291.0062,-42.7106"/>
</g>
<!-- 7&#45;&gt;2 -->
<g id="edge52" class="edge">
<title>7&#45;&gt;2</title>
<path fill="none" stroke="#ff0000" stroke-width=".1877" d="M299.6147,-77.7145C303.527,-74.4491 308.018,-71.0821 312.5061,-68.5269 351.2049,-46.4947 400.8826,-30.9254 430.6229,-22.7899"/>
<polygon fill="#ff0000" stroke="#ff0000" stroke-width=".1877" points="431.8562,-26.0837 440.6205,-20.1308 430.0569,-19.3188 431.8562,-26.0837"/>
</g>
<!-- 8&#45;&gt;0 -->
<g id="edge14" class="edge">
<title>8&#45;&gt;0</title>
<path fill="none" stroke="#00ff00" stroke-width=".1061" d="M87.4407,-77.7966C91.6218,-74.3774 96.5236,-70.9004 101.5061,-68.5269 167.3101,-37.1801 194.0945,-60.2481 261.5061,-32.5269 262.7248,-32.0257 263.9509,-31.4695 265.1716,-30.8734"/>
<polygon fill="#00ff00" stroke="#00ff00" stroke-width=".1061" points="267.2155,-33.7392 274.2092,-25.7806 263.779,-27.6408 267.2155,-33.7392"/>
</g>
<!-- 8&#45;&gt;1 -->
<g id="edge63" class="edge">
<title>8&#45;&gt;1</title>
<path fill="none" stroke="#ff0000" stroke-width=".1951" d="M87.6624,-78.2208C91.8583,-74.8299 96.7128,-71.2624 101.5061,-68.5269 137.3136,-48.0919 182.6638,-32.386 210.6238,-23.7393"/>
<polygon fill="#ff0000" stroke="#ff0000" stroke-width=".1951" points="211.8718,-27.0185 220.4321,-20.7758 209.8472,-20.3177 211.8718,-27.0185"/>
</g>
<!-- 8&#45;&gt;2 -->
<g id="edge91" class="edge">
<title>8&#45;&gt;2</title>
<path fill="none" stroke="#ff0000" stroke-width=".5274" d="M87.3404,-77.5753C91.5147,-74.1414 96.438,-70.7116 101.5061,-68.5269 131.6317,-55.541 352.5254,-28.5415 429.8577,-19.3813"/>
<polygon fill="#ff0000" stroke="#ff0000" stroke-width=".5274" points="430.6648,-22.8105 440.1859,-18.163 429.8448,-15.8587 430.6648,-22.8105"/>
</g>
<!-- 9&#45;&gt;2 -->
<g id="edge57" class="edge">
<title>9&#45;&gt;2</title>
<path fill="none" stroke="#00ff00" stroke-width=".2438" d="M731.873,-77.502C727.9136,-74.1479 723.2759,-70.7837 718.5061,-68.5269 707.8051,-63.4638 547.496,-33.2286 483.0435,-21.1972"/>
<polygon fill="#00ff00" stroke="#00ff00" stroke-width=".2438" points="483.3396,-17.6922 472.8675,-19.3003 482.0568,-24.5737 483.3396,-17.6922"/>
</g>
<!-- 10&#45;&gt;2 -->
<g id="edge25" class="edge">
<title>10&#45;&gt;2</title>
<path fill="none" stroke="#00ff00" stroke-width=".2652" d="M782.427,-76.1491C778.1152,-73.2381 773.3106,-70.4449 768.5061,-68.5269 675.2669,-31.3052 644.4464,-49.5512 545.5061,-32.5269 524.3544,-28.8874 500.4269,-24.4998 482.7127,-21.1995"/>
<polygon fill="#00ff00" stroke="#00ff00" stroke-width=".2652" points="483.0395,-17.7 472.5664,-19.3015 481.7524,-24.5807 483.0395,-17.7"/>
</g>
<!-- 10&#45;&gt;3 -->
<g id="edge43" class="edge">
<title>10&#45;&gt;3</title>
<path fill="none" stroke="#ff0000" stroke-width=".2428" d="M782.2888,-76.4721C777.9797,-73.5549 773.2109,-70.678 768.5061,-68.5269 710.1359,-41.8397 635.6267,-26.8014 596.7671,-20.254"/>
<polygon fill="#ff0000" stroke="#ff0000" stroke-width=".2428" points="597.2277,-16.783 586.7951,-18.6298 596.1024,-23.6919 597.2277,-16.783"/>
</g>
<!-- 11&#45;&gt;2 -->
<g id="edge30" class="edge">
<title>11&#45;&gt;2</title>
<path fill="none" stroke="#00ff00" stroke-width=".184" d="M841.7511,-75.819C837.6595,-72.9886 833.1035,-70.3154 828.5061,-68.5269 710.3411,-22.5585 670.804,-51.93 545.5061,-32.5269 524.2964,-29.2425 500.3728,-24.8309 482.6749,-21.4311"/>
<polygon fill="#00ff00" stroke="#00ff00" stroke-width=".184" points="483.0235,-17.9335 472.5399,-19.4641 481.6898,-24.8053 483.0235,-17.9335"/>
</g>
<!-- 12&#45;&gt;2 -->
<g id="edge49" class="edge">
<title>12&#45;&gt;2</title>
<path fill="none" stroke="#00ff00" stroke-width=".2893" d="M553.7642,-76.9205C549.7805,-74.1149 545.5203,-71.1763 541.5061,-68.5269 520.8897,-54.9199 496.8685,-40.2562 479.6318,-29.9347"/>
<polygon fill="#00ff00" stroke="#00ff00" stroke-width=".2893" points="481.2004,-26.7951 470.8185,-24.6815 477.6163,-32.808 481.2004,-26.7951"/>
</g>
<!-- 13&#45;&gt;2 -->
<g id="edge7" class="edge">
<title>13&#45;&gt;2</title>
<path fill="none" stroke="#00ff00" stroke-width=".1161" d="M672.272,-76.0095C668.2674,-73.2415 663.8704,-70.5482 659.5061,-68.5269 627.8743,-53.8768 529.9006,-31.8846 482.5933,-21.7436"/>
<polygon fill="#00ff00" stroke="#00ff00" stroke-width=".1161" points="483.0255,-18.2573 472.5159,-19.5986 481.5681,-25.1039 483.0255,-18.2573"/>
</g>
<!-- 13&#45;&gt;3 -->
<g id="edge60" class="edge">
<title>13&#45;&gt;3</title>
<path fill="none" stroke="#00ff00" stroke-width=".4823" d="M671.8029,-76.8612C667.8176,-74.058 663.547,-71.1354 659.5061,-68.5269 637.5844,-54.3757 611.8054,-39.4134 593.6501,-29.1414"/>
<polygon fill="#00ff00" stroke="#00ff00" stroke-width=".4823" points="595.3435,-26.0783 584.9117,-24.2265 591.9118,-32.1794 595.3435,-26.0783"/>
</g>
<!-- 14&#45;&gt;1 -->
<g id="edge4" class="edge">
<title>14&#45;&gt;1</title>
<path fill="none" stroke="#00ff00" stroke-width=".3914" d="M325.4754,-77.3413C307.3067,-64.8685 278.4605,-45.0653 258.5654,-31.4073"/>
<polygon fill="#00ff00" stroke="#00ff00" stroke-width=".3914" points="260.35,-28.387 250.1248,-25.6127 256.3881,-34.158 260.35,-28.387"/>
</g>
<!-- 15&#45;&gt;0 -->
<g id="edge85" class="edge">
<title>15&#45;&gt;0</title>
<path fill="none" stroke="#00ff00" stroke-width=".185" d="M198.5368,-77.3413C216.7055,-64.8685 245.5517,-45.0653 265.4468,-31.4073"/>
<polygon fill="#00ff00" stroke="#00ff00" stroke-width=".185" points="267.6241,-34.158 273.8874,-25.6127 263.6622,-28.387 267.6241,-34.158"/>
</g>
<!-- 15&#45;&gt;1 -->
<g id="edge88" class="edge">
<title>15&#45;&gt;1</title>
<path fill="none" stroke="#ff0000" stroke-width=".1755" d="M193.9864,-72.5205C201.8664,-62.0947 212.1196,-48.5288 220.5832,-37.3308"/>
<polygon fill="#ff0000" stroke="#ff0000" stroke-width=".1755" points="223.4,-39.4085 226.6375,-29.3204 217.8156,-35.1878 223.4,-39.4085"/>
</g>
<!-- 15&#45;&gt;2 -->
<g id="edge34" class="edge">
<title>15&#45;&gt;2</title>
<path fill="none" stroke="#ff0000" stroke-width=".1272" d="M197.6539,-76.3151C201.9643,-73.4009 206.7511,-70.5647 211.5061,-68.5269 286.8184,-36.2512 383.9705,-23.1754 430.0296,-18.5201"/>
<polygon fill="#ff0000" stroke="#ff0000" stroke-width=".1272" points="430.4636,-21.9947 440.0844,-17.5573 429.7963,-15.0266 430.4636,-21.9947"/>
</g>
<!-- 16&#45;&gt;0 -->
<g id="edge90" class="edge">
<title>16&#45;&gt;0</title>
<path fill="none" stroke="#00ff00" stroke-width=".1403" d="M36.5972,-76.1788C40.9087,-73.2673 45.7102,-70.4664 50.5061,-68.5269 138.7005,-32.8615 172.6056,-66.3939 261.5061,-32.5269 262.7375,-32.0578 263.9738,-31.5274 265.2026,-30.9519"/>
<polygon fill="#00ff00" stroke="#00ff00" stroke-width=".1403" points="267.2177,-33.8367 274.2675,-25.9279 263.8244,-27.7142 267.2177,-33.8367"/>
</g>
<!-- 17&#45;&gt;0 -->
<g id="edge31" class="edge">
<title>17&#45;&gt;0</title>
<path fill="none" stroke="#00ff00" stroke-width=".2369" d="M613.7005,-75.9453C609.6105,-73.1111 605.0678,-70.4045 600.5061,-68.5269 548.386,-47.0744 379.6332,-26.5276 313.9811,-19.1428"/>
<polygon fill="#00ff00" stroke="#00ff00" stroke-width=".2369" points="314.3387,-15.661 304.013,-18.0339 313.5647,-22.6181 314.3387,-15.661"/>
</g>
<!-- 17&#45;&gt;3 -->
<g id="edge10" class="edge">
<title>17&#45;&gt;3</title>
<path fill="none" stroke="#00ff00" stroke-width=".2025" d="M616.4121,-72.8831C607.7795,-62.2358 596.3986,-48.1988 587.1286,-36.7653"/>
<polygon fill="#00ff00" stroke="#00ff00" stroke-width=".2025" points="589.8377,-34.5492 580.8211,-28.9858 584.4003,-38.9577 589.8377,-34.5492"/>
</g>
<!-- 18&#45;&gt;0 -->
<g id="edge8" class="edge">
<title>18&#45;&gt;0</title>
<path fill="none" stroke="#00ff00" stroke-width=".153" d="M495.2812,-76.4886C490.9722,-73.5712 486.2054,-70.6899 481.5061,-68.5269 424.6929,-42.3768 352.296,-27.2195 314.0146,-20.4844"/>
<polygon fill="#00ff00" stroke="#00ff00" stroke-width=".153" points="314.1685,-16.9604 303.7231,-18.7337 312.9945,-23.8613 314.1685,-16.9604"/>
</g>
<!-- 18&#45;&gt;3 -->
<g id="edge80" class="edge">
<title>18&#45;&gt;3</title>
<path fill="none" stroke="#00ff00" stroke-width=".1738" d="M524.6001,-72.8831C533.2327,-62.2358 544.6136,-48.1988 553.8836,-36.7653"/>
<polygon fill="#00ff00" stroke="#00ff00" stroke-width=".1738" points="556.6119,-38.9577 560.1911,-28.9858 551.1745,-34.5492 556.6119,-38.9577"/>
</g>
<!-- 19&#45;&gt;0 -->
<g id="edge13" class="edge">
<title>19&#45;&gt;0</title>
<path fill="none" stroke="#ff0000" stroke-width=".1368" d="M384.7642,-76.9205C380.7805,-74.1149 376.5203,-71.1763 372.5061,-68.5269 351.8897,-54.9199 327.8685,-40.2562 310.6318,-29.9347"/>
<polygon fill="#ff0000" stroke="#ff0000" stroke-width=".1368" points="312.2004,-26.7951 301.8185,-24.6815 308.6163,-32.808 312.2004,-26.7951"/>
</g>
<!-- 19&#45;&gt;1 -->
<g id="edge28" class="edge">
<title>19&#45;&gt;1</title>
<path fill="none" stroke="#00ff00" stroke-width=".2794" d="M385.1745,-76.2115C381.1739,-73.4351 376.8032,-70.6875 372.5061,-68.5269 326.5479,-45.4192 309.0988,-54.327 262.5061,-32.5269 261.3125,-31.9685 260.1067,-31.366 258.9022,-30.7332"/>
<polygon fill="#00ff00" stroke="#00ff00" stroke-width=".2794" points="260.3241,-27.5116 249.9186,-25.5175 256.8094,-33.5653 260.3241,-27.5116"/>
</g>
<!-- 19&#45;&gt;2 -->
<g id="edge15" class="edge">
<title>19&#45;&gt;2</title>
<path fill="none" stroke="#ff0000" stroke-width=".1577" d="M413.9864,-72.5205C421.8664,-62.0947 432.1196,-48.5288 440.5832,-37.3308"/>
<polygon fill="#ff0000" stroke="#ff0000" stroke-width=".1577" points="443.4,-39.4085 446.6375,-29.3204 437.8156,-35.1878 443.4,-39.4085"/>
</g>
</g>
</svg>
