<?xml version="1.0" encoding="UTF-8" standalone="no"?>
<!DOCTYPE svg PUBLIC "-//W3C//DTD SVG 1.1//EN"
 "http://www.w3.org/Graphics/SVG/1.1/DTD/svg11.dtd">
<!-- Generated by graphviz version 2.40.1 (20161225.0304)
 -->
<!-- Title: %3 Pages: 1 -->
<svg width="886pt" height="172pt"
 viewBox="0.00 0.00 886.01 171.54" xmlns="http://www.w3.org/2000/svg" xmlns:xlink="http://www.w3.org/1999/xlink">
<g id="graph0" class="graph" transform="scale(1 1) rotate(0) translate(4 167.5391)">
<title>%3</title>
<polygon fill="#ffffff" stroke="transparent" points="-4,4 -4,-167.5391 882.0122,-167.5391 882.0122,4 -4,4"/>
<!-- &#45;1 -->
<g id="node1" class="node">
<title>&#45;1</title>
<polygon fill="#d3d3d3" stroke="#000000" points="143.5061,-163.5391 117.5061,-163.5391 117.5061,-145.5391 143.5061,-145.5391 143.5061,-163.5391"/>
<text text-anchor="middle" x="130.5061" y="-152.3391" font-family="Times,serif" font-size="9.00" fill="#000000">&#45;1</text>
</g>
<!-- 7 -->
<g id="node16" class="node">
<title>7</title>
<ellipse fill="#ffffff" stroke="#000000" cx="75.5061" cy="-89.033" rx="16.0303" ry="16.0303"/>
<text text-anchor="middle" x="75.5061" y="-86.833" font-family="Times,serif" font-size="9.00" fill="#000000">7</text>
</g>
<!-- &#45;1&#45;&gt;7 -->
<g id="edge70" class="edge">
<title>&#45;1&#45;&gt;7</title>
<path fill="none" stroke="#ff0000" stroke-width=".1599" d="M122.8586,-145.4308C115.0883,-136.1762 102.7903,-121.529 92.6746,-109.481"/>
<polygon fill="#ff0000" stroke="#ff0000" stroke-width=".1599" points="95.2132,-107.0615 86.1025,-101.6535 89.8523,-111.5626 95.2132,-107.0615"/>
</g>
<!-- 9 -->
<g id="node18" class="node">
<title>9</title>
<ellipse fill="#ffffff" stroke="#000000" cx="574.5061" cy="-89.033" rx="16.0303" ry="16.0303"/>
<text text-anchor="middle" x="574.5061" y="-86.833" font-family="Times,serif" font-size="9.00" fill="#000000">9</text>
</g>
<!-- &#45;1&#45;&gt;9 -->
<g id="edge92" class="edge">
<title>&#45;1&#45;&gt;9</title>
<path fill="none" stroke="#ff0000" stroke-width=".3254" d="M143.9066,-153.5401C211.1566,-148.4676 510.1565,-125.1921 548.5061,-109.5391 550.4222,-108.757 552.3136,-107.7894 554.1493,-106.7038"/>
<polygon fill="#ff0000" stroke="#ff0000" stroke-width=".3254" points="556.6006,-109.2553 562.7205,-100.6068 552.5431,-103.5512 556.6006,-109.2553"/>
</g>
<!-- 10 -->
<g id="node19" class="node">
<title>10</title>
<ellipse fill="#ffffff" stroke="#000000" cx="130.5061" cy="-89.033" rx="20.5122" ry="20.5122"/>
<text text-anchor="middle" x="130.5061" y="-86.833" font-family="Times,serif" font-size="9.00" fill="#000000">10</text>
</g>
<!-- &#45;1&#45;&gt;10 -->
<g id="edge71" class="edge">
<title>&#45;1&#45;&gt;10</title>
<path fill="none" stroke="#00ff00" stroke-width=".5024" d="M130.5061,-145.4308C130.5061,-138.7387 130.5061,-129.2268 130.5061,-119.917"/>
<polygon fill="#00ff00" stroke="#00ff00" stroke-width=".5024" points="134.0062,-119.6528 130.5061,-109.6528 127.0062,-119.6528 134.0062,-119.6528"/>
</g>
<!-- 14 -->
<g id="node23" class="node">
<title>14</title>
<ellipse fill="#ffffff" stroke="#000000" cx="248.5061" cy="-89.033" rx="20.5122" ry="20.5122"/>
<text text-anchor="middle" x="248.5061" y="-86.833" font-family="Times,serif" font-size="9.00" fill="#000000">14</text>
</g>
<!-- &#45;1&#45;&gt;14 -->
<g id="edge55" class="edge">
<title>&#45;1&#45;&gt;14</title>
<path fill="none" stroke="#ff0000" stroke-width=".1328" d="M143.801,-148.5676C161.4884,-140.4554 193.5459,-125.1642 219.5061,-109.5391 220.7939,-108.764 222.0993,-107.9506 223.4074,-107.1133"/>
<polygon fill="#ff0000" stroke="#ff0000" stroke-width=".1328" points="225.5729,-109.8749 231.9189,-101.3908 221.6673,-104.0657 225.5729,-109.8749"/>
</g>
<!-- 19 -->
<g id="node28" class="node">
<title>19</title>
<ellipse fill="#ffffff" stroke="#000000" cx="20.5061" cy="-89.033" rx="20.5122" ry="20.5122"/>
<text text-anchor="middle" x="20.5061" y="-86.833" font-family="Times,serif" font-size="9.00" fill="#000000">19</text>
</g>
<!-- &#45;1&#45;&gt;19 -->
<g id="edge87" class="edge">
<title>&#45;1&#45;&gt;19</title>
<path fill="none" stroke="#00ff00" stroke-width=".475" d="M117.2773,-147.5566C101.2441,-138.9895 73.5159,-123.8369 50.5061,-109.5391 49.0325,-108.6234 47.5293,-107.6679 46.0199,-106.6915"/>
<polygon fill="#00ff00" stroke="#00ff00" stroke-width=".475" points="47.7346,-103.6286 37.4695,-101.0059 43.8586,-109.4576 47.7346,-103.6286"/>
</g>
<!-- &#45;2 -->
<g id="node2" class="node">
<title>&#45;2</title>
<polygon fill="#d3d3d3" stroke="#000000" points="393.5061,-163.5391 367.5061,-163.5391 367.5061,-145.5391 393.5061,-145.5391 393.5061,-163.5391"/>
<text text-anchor="middle" x="380.5061" y="-152.3391" font-family="Times,serif" font-size="9.00" fill="#000000">&#45;2</text>
</g>
<!-- 5 -->
<g id="node14" class="node">
<title>5</title>
<ellipse fill="#ffffff" stroke="#000000" cx="523.5061" cy="-89.033" rx="16.0303" ry="16.0303"/>
<text text-anchor="middle" x="523.5061" y="-86.833" font-family="Times,serif" font-size="9.00" fill="#000000">5</text>
</g>
<!-- &#45;2&#45;&gt;5 -->
<g id="edge31" class="edge">
<title>&#45;2&#45;&gt;5</title>
<path fill="none" stroke="#ff0000" stroke-width=".2146" d="M393.7152,-150.8818C416.011,-144.4033 462.1378,-129.672 497.5061,-109.5391 499.4546,-108.43 501.4128,-107.1828 503.3326,-105.8655"/>
<polygon fill="#ff0000" stroke="#ff0000" stroke-width=".2146" points="505.4523,-108.6508 511.3533,-99.8514 501.2529,-103.0503 505.4523,-108.6508"/>
</g>
<!-- 6 -->
<g id="node15" class="node">
<title>6</title>
<ellipse fill="#ffffff" stroke="#000000" cx="472.5061" cy="-89.033" rx="16.0303" ry="16.0303"/>
<text text-anchor="middle" x="472.5061" y="-86.833" font-family="Times,serif" font-size="9.00" fill="#000000">6</text>
</g>
<!-- &#45;2&#45;&gt;6 -->
<g id="edge25" class="edge">
<title>&#45;2&#45;&gt;6</title>
<path fill="none" stroke="#ff0000" stroke-width=".2773" d="M393.8421,-145.8394C407.3083,-136.9636 428.6174,-122.6675 446.5061,-109.5391 448.1398,-108.3401 449.8166,-107.0825 451.4936,-105.8052"/>
<polygon fill="#ff0000" stroke="#ff0000" stroke-width=".2773" points="453.9389,-108.3373 459.682,-99.4341 449.6403,-102.8126 453.9389,-108.3373"/>
</g>
<!-- &#45;2&#45;&gt;7 -->
<g id="edge42" class="edge">
<title>&#45;2&#45;&gt;7</title>
<path fill="none" stroke="#00ff00" stroke-width=".2833" d="M367.1938,-148.4737C364.3701,-147.3634 361.3748,-146.3129 358.5061,-145.5391 246.7241,-115.3858 206.5584,-155.9864 100.5061,-109.5391 98.6935,-108.7453 96.9061,-107.7812 95.1713,-106.709"/>
<polygon fill="#00ff00" stroke="#00ff00" stroke-width=".2833" points="97.1889,-103.8481 87.0627,-100.732 93.0355,-109.4828 97.1889,-103.8481"/>
</g>
<!-- 8 -->
<g id="node17" class="node">
<title>8</title>
<ellipse fill="#ffffff" stroke="#000000" cx="421.5061" cy="-89.033" rx="16.0303" ry="16.0303"/>
<text text-anchor="middle" x="421.5061" y="-86.833" font-family="Times,serif" font-size="9.00" fill="#000000">8</text>
</g>
<!-- &#45;2&#45;&gt;8 -->
<g id="edge29" class="edge">
<title>&#45;2&#45;&gt;8</title>
<path fill="none" stroke="#00ff00" stroke-width=".1368" d="M386.207,-145.4308C391.6239,-136.7761 399.9928,-123.4051 407.2224,-111.8542"/>
<polygon fill="#00ff00" stroke="#00ff00" stroke-width=".1368" points="410.3593,-113.4393 412.698,-103.1058 404.4257,-109.7255 410.3593,-113.4393"/>
</g>
<!-- &#45;2&#45;&gt;10 -->
<g id="edge37" class="edge">
<title>&#45;2&#45;&gt;10</title>
<path fill="none" stroke="#00ff00" stroke-width=".1278" d="M367.1687,-148.5631C364.3468,-147.4463 361.3586,-146.3706 358.5061,-145.5391 272.2175,-120.3857 242.3879,-144.3101 159.5061,-109.5391 158.0846,-108.9427 156.6641,-108.2673 155.2581,-107.5339"/>
<polygon fill="#00ff00" stroke="#00ff00" stroke-width=".1278" points="156.6876,-104.3057 146.3298,-102.077 153.0371,-110.2784 156.6876,-104.3057"/>
</g>
<!-- 11 -->
<g id="node20" class="node">
<title>11</title>
<ellipse fill="#ffffff" stroke="#000000" cx="307.5061" cy="-89.033" rx="20.5122" ry="20.5122"/>
<text text-anchor="middle" x="307.5061" y="-86.833" font-family="Times,serif" font-size="9.00" fill="#000000">11</text>
</g>
<!-- &#45;2&#45;&gt;11 -->
<g id="edge76" class="edge">
<title>&#45;2&#45;&gt;11</title>
<path fill="none" stroke="#ff0000" stroke-width=".4416" d="M370.3558,-145.4308C360.0725,-136.2032 343.8145,-121.6141 330.4105,-109.5862"/>
<polygon fill="#ff0000" stroke="#ff0000" stroke-width=".4416" points="332.6954,-106.9339 322.915,-102.8601 328.0203,-112.1438 332.6954,-106.9339"/>
</g>
<!-- 12 -->
<g id="node21" class="node">
<title>12</title>
<ellipse fill="#ffffff" stroke="#000000" cx="189.5061" cy="-89.033" rx="20.5122" ry="20.5122"/>
<text text-anchor="middle" x="189.5061" y="-86.833" font-family="Times,serif" font-size="9.00" fill="#000000">12</text>
</g>
<!-- &#45;2&#45;&gt;12 -->
<g id="edge16" class="edge">
<title>&#45;2&#45;&gt;12</title>
<path fill="none" stroke="#00ff00" stroke-width=".1921" d="M367.119,-148.7229C364.3006,-147.5946 361.3265,-146.4738 358.5061,-145.5391 297.5212,-125.3291 276.8075,-136.5307 218.5061,-109.5391 217.1422,-108.9076 215.775,-108.2105 214.4177,-107.466"/>
<polygon fill="#00ff00" stroke="#00ff00" stroke-width=".1921" points="216.0776,-104.3764 205.7397,-102.0574 212.3751,-110.3171 216.0776,-104.3764"/>
</g>
<!-- &#45;2&#45;&gt;14 -->
<g id="edge89" class="edge">
<title>&#45;2&#45;&gt;14</title>
<path fill="none" stroke="#ff0000" stroke-width=".2443" d="M367.4715,-149.2339C343.6015,-139.4544 293.8218,-118.7447 277.5061,-109.5391 276.1971,-108.8005 274.8744,-108.0167 273.5526,-107.2029"/>
<polygon fill="#ff0000" stroke="#ff0000" stroke-width=".2443" points="275.2698,-104.1429 264.9945,-101.5602 271.4165,-109.9869 275.2698,-104.1429"/>
</g>
<!-- 15 -->
<g id="node24" class="node">
<title>15</title>
<ellipse fill="#ffffff" stroke="#000000" cx="688.5061" cy="-89.033" rx="20.5122" ry="20.5122"/>
<text text-anchor="middle" x="688.5061" y="-86.833" font-family="Times,serif" font-size="9.00" fill="#000000">15</text>
</g>
<!-- &#45;2&#45;&gt;15 -->
<g id="edge19" class="edge">
<title>&#45;2&#45;&gt;15</title>
<path fill="none" stroke="#00ff00" stroke-width=".2996" d="M393.669,-152.7729C445.5755,-145.7598 634.4672,-119.7641 659.5061,-109.5391 660.9332,-108.9563 662.3582,-108.2918 663.7678,-107.567"/>
<polygon fill="#00ff00" stroke="#00ff00" stroke-width=".2996" points="665.9768,-110.3205 672.7079,-102.1386 662.3436,-104.3371 665.9768,-110.3205"/>
</g>
<!-- 16 -->
<g id="node25" class="node">
<title>16</title>
<ellipse fill="#ffffff" stroke="#000000" cx="629.5061" cy="-89.033" rx="20.5122" ry="20.5122"/>
<text text-anchor="middle" x="629.5061" y="-86.833" font-family="Times,serif" font-size="9.00" fill="#000000">16</text>
</g>
<!-- &#45;2&#45;&gt;16 -->
<g id="edge34" class="edge">
<title>&#45;2&#45;&gt;16</title>
<path fill="none" stroke="#ff0000" stroke-width=".296" d="M393.7455,-152.5229C435.1129,-146.1138 561.4492,-125.6798 599.5061,-109.5391 601.1432,-108.8448 602.7836,-108.0547 604.4065,-107.1985"/>
<polygon fill="#ff0000" stroke="#ff0000" stroke-width=".296" points="606.6249,-109.947 613.3688,-101.7757 603.0012,-103.958 606.6249,-109.947"/>
</g>
<!-- 17 -->
<g id="node26" class="node">
<title>17</title>
<ellipse fill="#ffffff" stroke="#000000" cx="857.5061" cy="-89.033" rx="20.5122" ry="20.5122"/>
<text text-anchor="middle" x="857.5061" y="-86.833" font-family="Times,serif" font-size="9.00" fill="#000000">17</text>
</g>
<!-- &#45;2&#45;&gt;17 -->
<g id="edge40" class="edge">
<title>&#45;2&#45;&gt;17</title>
<path fill="none" stroke="#ff0000" stroke-width=".1762" d="M393.6502,-152.7189C407.7065,-150.8029 430.6581,-147.7621 450.5061,-145.5391 617.778,-126.8045 669.2433,-166.8431 827.5061,-109.5391 829.1782,-108.9337 830.8457,-108.213 832.4895,-107.4097"/>
<polygon fill="#ff0000" stroke="#ff0000" stroke-width=".1762" points="834.6446,-110.204 841.5096,-102.1342 831.1106,-104.1616 834.6446,-110.204"/>
</g>
<!-- 18 -->
<g id="node27" class="node">
<title>18</title>
<ellipse fill="#ffffff" stroke="#000000" cx="366.5061" cy="-89.033" rx="20.5122" ry="20.5122"/>
<text text-anchor="middle" x="366.5061" y="-86.833" font-family="Times,serif" font-size="9.00" fill="#000000">18</text>
</g>
<!-- &#45;2&#45;&gt;18 -->
<g id="edge53" class="edge">
<title>&#45;2&#45;&gt;18</title>
<path fill="none" stroke="#00ff00" stroke-width=".2505" d="M378.5595,-145.4308C377.0918,-138.5635 374.9895,-128.7268 372.9504,-119.1861"/>
<polygon fill="#00ff00" stroke="#00ff00" stroke-width=".2505" points="376.3085,-118.1519 370.7957,-109.1043 369.4631,-119.615 376.3085,-118.1519"/>
</g>
<!-- &#45;2&#45;&gt;19 -->
<g id="edge74" class="edge">
<title>&#45;2&#45;&gt;19</title>
<path fill="none" stroke="#00ff00" stroke-width=".1752" d="M367.2069,-148.4241C364.3822,-147.3174 361.3832,-146.2809 358.5061,-145.5391 225.0499,-111.1297 179.5903,-157.8283 50.5061,-109.5391 48.8405,-108.916 47.178,-108.1816 45.5381,-107.3678"/>
<polygon fill="#00ff00" stroke="#00ff00" stroke-width=".1752" points="46.9218,-104.1209 36.5287,-102.0631 43.3701,-110.1529 46.9218,-104.1209"/>
</g>
<!-- &#45;3 -->
<g id="node3" class="node">
<title>&#45;3</title>
<polygon fill="#d3d3d3" stroke="#000000" points="536.5061,-163.5391 510.5061,-163.5391 510.5061,-145.5391 536.5061,-145.5391 536.5061,-163.5391"/>
<text text-anchor="middle" x="523.5061" y="-152.3391" font-family="Times,serif" font-size="9.00" fill="#000000">&#45;3</text>
</g>
<!-- 4 -->
<g id="node13" class="node">
<title>4</title>
<ellipse fill="#ffffff" stroke="#000000" cx="802.5061" cy="-89.033" rx="16.0303" ry="16.0303"/>
<text text-anchor="middle" x="802.5061" y="-86.833" font-family="Times,serif" font-size="9.00" fill="#000000">4</text>
</g>
<!-- &#45;3&#45;&gt;4 -->
<g id="edge2" class="edge">
<title>&#45;3&#45;&gt;4</title>
<path fill="none" stroke="#ff0000" stroke-width=".259" d="M536.5968,-149.5027C540.6857,-148.0668 545.2427,-146.6047 549.5061,-145.5391 649.0332,-120.6632 683.9082,-151.5376 777.5061,-109.5391 779.3115,-108.729 781.0936,-107.7532 782.8248,-106.6727"/>
<polygon fill="#ff0000" stroke="#ff0000" stroke-width=".259" points="784.9683,-109.4407 790.9265,-100.68 780.8054,-103.813 784.9683,-109.4407"/>
</g>
<!-- &#45;3&#45;&gt;5 -->
<g id="edge23" class="edge">
<title>&#45;3&#45;&gt;5</title>
<path fill="none" stroke="#00ff00" stroke-width=".1716" d="M523.5061,-145.4308C523.5061,-137.6791 523.5061,-126.144 523.5061,-115.5219"/>
<polygon fill="#00ff00" stroke="#00ff00" stroke-width=".1716" points="527.0062,-115.3781 523.5061,-105.3782 520.0062,-115.3782 527.0062,-115.3781"/>
</g>
<!-- &#45;3&#45;&gt;6 -->
<g id="edge49" class="edge">
<title>&#45;3&#45;&gt;6</title>
<path fill="none" stroke="#ff0000" stroke-width=".2553" d="M516.4148,-145.4308C509.367,-136.3784 498.3021,-122.1663 489.0434,-110.2741"/>
<polygon fill="#ff0000" stroke="#ff0000" stroke-width=".2553" points="491.6091,-107.8721 482.7041,-102.1317 486.0857,-112.1724 491.6091,-107.8721"/>
</g>
<!-- &#45;3&#45;&gt;7 -->
<g id="edge59" class="edge">
<title>&#45;3&#45;&gt;7</title>
<path fill="none" stroke="#ff0000" stroke-width=".2954" d="M510.3746,-149.8238C505.4553,-148.2279 499.7802,-146.5864 494.5061,-145.5391 322.0329,-111.2913 263.2067,-176.2356 100.5061,-109.5391 98.6752,-108.7886 96.8745,-107.8559 95.1304,-106.8055"/>
<polygon fill="#ff0000" stroke="#ff0000" stroke-width=".2954" points="97.1438,-103.942 87.0039,-100.8707 93.0154,-109.595 97.1438,-103.942"/>
</g>
<!-- &#45;3&#45;&gt;8 -->
<g id="edge5" class="edge">
<title>&#45;3&#45;&gt;8</title>
<path fill="none" stroke="#ff0000" stroke-width=".1093" d="M510.2696,-147.4081C494.8418,-138.9367 468.75,-124.1104 447.5061,-109.5391 445.835,-108.3929 444.1311,-107.1735 442.4351,-105.9229"/>
<polygon fill="#ff0000" stroke="#ff0000" stroke-width=".1093" points="444.2723,-102.9206 434.2103,-99.6031 440.0073,-108.4713 444.2723,-102.9206"/>
</g>
<!-- &#45;3&#45;&gt;9 -->
<g id="edge48" class="edge">
<title>&#45;3&#45;&gt;9</title>
<path fill="none" stroke="#00ff00" stroke-width=".1538" d="M530.5974,-145.4308C537.6452,-136.3784 548.7101,-122.1663 557.9688,-110.2741"/>
<polygon fill="#00ff00" stroke="#00ff00" stroke-width=".1538" points="560.9265,-112.1724 564.3081,-102.1317 555.4031,-107.8721 560.9265,-112.1724"/>
</g>
<!-- &#45;3&#45;&gt;10 -->
<g id="edge65" class="edge">
<title>&#45;3&#45;&gt;10</title>
<path fill="none" stroke="#00ff00" stroke-width=".3626" d="M510.3653,-149.8694C505.445,-148.2784 499.7717,-146.6284 494.5061,-145.5391 347.8647,-115.2044 299.5861,-162.4682 159.5061,-109.5391 158.064,-108.9942 156.6271,-108.3602 155.2079,-107.6597"/>
<polygon fill="#00ff00" stroke="#00ff00" stroke-width=".3626" points="156.6183,-104.4257 146.2367,-102.3107 153.0334,-110.4381 156.6183,-104.4257"/>
</g>
<!-- &#45;3&#45;&gt;12 -->
<g id="edge67" class="edge">
<title>&#45;3&#45;&gt;12</title>
<path fill="none" stroke="#00ff00" stroke-width=".2405" d="M510.3516,-149.9341C505.4298,-148.35 499.759,-146.6879 494.5061,-145.5391 373.6567,-119.1092 333.724,-154.5717 218.5061,-109.5391 217.0703,-108.9779 215.6384,-108.3308 214.2232,-107.6198"/>
<polygon fill="#00ff00" stroke="#00ff00" stroke-width=".2405" points="215.6394,-104.3875 205.2651,-102.2367 212.0338,-110.3875 215.6394,-104.3875"/>
</g>
<!-- 13 -->
<g id="node22" class="node">
<title>13</title>
<ellipse fill="#ffffff" stroke="#000000" cx="747.5061" cy="-89.033" rx="20.5122" ry="20.5122"/>
<text text-anchor="middle" x="747.5061" y="-86.833" font-family="Times,serif" font-size="9.00" fill="#000000">13</text>
</g>
<!-- &#45;3&#45;&gt;13 -->
<g id="edge62" class="edge">
<title>&#45;3&#45;&gt;13</title>
<path fill="none" stroke="#00ff00" stroke-width=".4768" d="M536.6336,-149.642C540.724,-148.2118 545.2726,-146.7179 549.5061,-145.5391 623.4881,-124.9395 648.1569,-140.3395 718.5061,-109.5391 719.8829,-108.9363 721.2605,-108.2624 722.6262,-107.5363"/>
<polygon fill="#00ff00" stroke="#00ff00" stroke-width=".4768" points="724.6421,-110.4057 731.3324,-102.1904 720.9792,-104.4405 724.6421,-110.4057"/>
</g>
<!-- &#45;3&#45;&gt;15 -->
<g id="edge73" class="edge">
<title>&#45;3&#45;&gt;15</title>
<path fill="none" stroke="#00ff00" stroke-width=".3641" d="M536.7181,-149.9172C540.812,-148.4981 545.3413,-146.9413 549.5061,-145.5391 598.2576,-129.1252 613.5479,-132.6468 659.5061,-109.5391 660.8489,-108.8639 662.199,-108.1314 663.5427,-107.3586"/>
<polygon fill="#00ff00" stroke="#00ff00" stroke-width=".3641" points="665.6246,-110.1821 672.1745,-101.8545 661.861,-104.2799 665.6246,-110.1821"/>
</g>
<!-- &#45;3&#45;&gt;16 -->
<g id="edge95" class="edge">
<title>&#45;3&#45;&gt;16</title>
<path fill="none" stroke="#ff0000" stroke-width=".2298" d="M536.5708,-147.1482C551.8373,-138.4328 577.7776,-123.3774 599.5061,-109.5391 600.9694,-108.6071 602.4646,-107.6388 603.9678,-106.6526"/>
<polygon fill="#ff0000" stroke="#ff0000" stroke-width=".2298" points="606.1388,-109.4111 612.5004,-100.9387 602.2439,-103.5947 606.1388,-109.4111"/>
</g>
<!-- &#45;4 -->
<g id="node4" class="node">
<title>&#45;4</title>
<polygon fill="#d3d3d3" stroke="#000000" points="305.5061,-163.5391 279.5061,-163.5391 279.5061,-145.5391 305.5061,-145.5391 305.5061,-163.5391"/>
<text text-anchor="middle" x="292.5061" y="-152.3391" font-family="Times,serif" font-size="9.00" fill="#000000">&#45;4</text>
</g>
<!-- &#45;4&#45;&gt;6 -->
<g id="edge91" class="edge">
<title>&#45;4&#45;&gt;6</title>
<path fill="none" stroke="#ff0000" stroke-width=".1129" d="M305.9039,-148.7547C308.7215,-147.6241 311.6926,-146.4943 314.5061,-145.5391 372.0876,-125.9905 392.2089,-136.9177 446.5061,-109.5391 448.508,-108.5296 450.5035,-107.3518 452.4478,-106.0804"/>
<polygon fill="#ff0000" stroke="#ff0000" stroke-width=".1129" points="454.5351,-108.89 460.5075,-100.139 450.3814,-103.2555 454.5351,-108.89"/>
</g>
<!-- &#45;4&#45;&gt;7 -->
<g id="edge3" class="edge">
<title>&#45;4&#45;&gt;7</title>
<path fill="none" stroke="#ff0000" stroke-width=".3829" d="M279.2385,-153.5076C247.0397,-150.5745 162.8254,-140.3059 100.5061,-109.5391 98.7318,-108.6631 96.9721,-107.6396 95.2566,-106.5257"/>
<polygon fill="#ff0000" stroke="#ff0000" stroke-width=".3829" points="97.2844,-103.6715 87.1852,-100.4689 93.0829,-109.2704 97.2844,-103.6715"/>
</g>
<!-- &#45;4&#45;&gt;8 -->
<g id="edge21" class="edge">
<title>&#45;4&#45;&gt;8</title>
<path fill="none" stroke="#00ff00" stroke-width=".4083" d="M305.6106,-149.1092C331.6854,-138.2702 388.2761,-114.5586 396.5061,-109.5391 398.0217,-108.6147 399.5444,-107.6058 401.0493,-106.5473"/>
<polygon fill="#00ff00" stroke="#00ff00" stroke-width=".4083" points="403.5173,-109.064 409.3002,-100.1867 399.2435,-103.5201 403.5173,-109.064"/>
</g>
<!-- &#45;4&#45;&gt;10 -->
<g id="edge6" class="edge">
<title>&#45;4&#45;&gt;10</title>
<path fill="none" stroke="#ff0000" stroke-width=".2676" d="M279.1621,-151.3941C254.6113,-145.3145 200.9978,-130.6608 159.5061,-109.5391 158.1666,-108.8572 156.8193,-108.1193 155.4778,-107.3422"/>
<polygon fill="#ff0000" stroke="#ff0000" stroke-width=".2676" points="157.163,-104.2653 146.8534,-101.8235 153.39,-110.1615 157.163,-104.2653"/>
</g>
<!-- &#45;4&#45;&gt;11 -->
<g id="edge80" class="edge">
<title>&#45;4&#45;&gt;11</title>
<path fill="none" stroke="#00ff00" stroke-width=".2748" d="M294.5918,-145.4308C296.181,-138.4904 298.4648,-128.5172 300.6711,-118.8818"/>
<polygon fill="#00ff00" stroke="#00ff00" stroke-width=".2748" points="304.0896,-119.6332 302.9101,-109.1043 297.2662,-118.0707 304.0896,-119.6332"/>
</g>
<!-- &#45;4&#45;&gt;18 -->
<g id="edge83" class="edge">
<title>&#45;4&#45;&gt;18</title>
<path fill="none" stroke="#ff0000" stroke-width=".1622" d="M302.7955,-145.4308C313.2196,-136.2032 329.7003,-121.6141 343.2879,-109.5862"/>
<polygon fill="#ff0000" stroke="#ff0000" stroke-width=".1622" points="345.7182,-112.1091 350.8861,-102.8601 341.0784,-106.8677 345.7182,-112.1091"/>
</g>
<!-- &#45;4&#45;&gt;19 -->
<g id="edge44" class="edge">
<title>&#45;4&#45;&gt;19</title>
<path fill="none" stroke="#ff0000" stroke-width=".5604" d="M279.3776,-153.9937C242.1147,-152.053 133.0551,-143.6374 50.5061,-109.5391 48.8625,-108.8602 47.2171,-108.0822 45.5903,-107.2351"/>
<polygon fill="#ff0000" stroke="#ff0000" stroke-width=".5604" points="46.9907,-103.9931 36.6173,-101.8379 43.3826,-109.9916 46.9907,-103.9931"/>
</g>
<!-- &#45;5 -->
<g id="node5" class="node">
<title>&#45;5</title>
<polygon fill="#d3d3d3" stroke="#000000" points="584.5061,-163.5391 558.5061,-163.5391 558.5061,-145.5391 584.5061,-145.5391 584.5061,-163.5391"/>
<text text-anchor="middle" x="571.5061" y="-152.3391" font-family="Times,serif" font-size="9.00" fill="#000000">&#45;5</text>
</g>
<!-- &#45;5&#45;&gt;4 -->
<g id="edge84" class="edge">
<title>&#45;5&#45;&gt;4</title>
<path fill="none" stroke="#00ff00" stroke-width=".1625" d="M584.7341,-153.7875C618.4977,-151.4285 709.9654,-142.2497 777.5061,-109.5391 779.287,-108.6766 781.0515,-107.6628 782.7703,-106.5558"/>
<polygon fill="#00ff00" stroke="#00ff00" stroke-width=".1625" points="784.9379,-109.3052 790.8481,-100.512 780.7444,-103.7003 784.9379,-109.3052"/>
</g>
<!-- &#45;5&#45;&gt;5 -->
<g id="edge18" class="edge">
<title>&#45;5&#45;&gt;5</title>
<path fill="none" stroke="#00ff00" stroke-width=".3347" d="M564.8319,-145.4308C558.2816,-136.4915 548.0445,-122.5208 539.3982,-110.7211"/>
<polygon fill="#00ff00" stroke="#00ff00" stroke-width=".3347" points="542.1929,-108.6134 533.459,-102.6159 536.5465,-112.7509 542.1929,-108.6134"/>
</g>
<!-- &#45;5&#45;&gt;6 -->
<g id="edge60" class="edge">
<title>&#45;5&#45;&gt;6</title>
<path fill="none" stroke="#00ff00" stroke-width=".3666" d="M558.2929,-147.0148C543.4425,-138.4168 518.7615,-123.6994 498.5061,-109.5391 496.8452,-108.378 495.1488,-107.1479 493.4581,-105.8897"/>
<polygon fill="#00ff00" stroke="#00ff00" stroke-width=".3666" points="495.2996,-102.8901 485.2432,-99.5555 491.0252,-108.4335 495.2996,-102.8901"/>
</g>
<!-- &#45;5&#45;&gt;9 -->
<g id="edge41" class="edge">
<title>&#45;5&#45;&gt;9</title>
<path fill="none" stroke="#ff0000" stroke-width=".1135" d="M571.9232,-145.4308C572.2782,-137.6791 572.8065,-126.144 573.293,-115.5219"/>
<polygon fill="#ff0000" stroke="#ff0000" stroke-width=".1135" points="576.7963,-115.5279 573.7575,-105.3782 569.8036,-115.2075 576.7963,-115.5279"/>
</g>
<!-- &#45;5&#45;&gt;11 -->
<g id="edge77" class="edge">
<title>&#45;5&#45;&gt;11</title>
<path fill="none" stroke="#00ff00" stroke-width=".5291" d="M558.4061,-149.5393C554.3168,-148.1049 549.7619,-146.6345 545.5061,-145.5391 454.2242,-122.0452 423.5762,-145.6382 336.5061,-109.5391 335.0821,-108.9487 333.6596,-108.2781 332.252,-107.5485"/>
<polygon fill="#00ff00" stroke="#00ff00" stroke-width=".5291" points="333.6792,-104.3195 323.3185,-102.1041 330.0363,-110.2969 333.6792,-104.3195"/>
</g>
<!-- &#45;5&#45;&gt;14 -->
<g id="edge20" class="edge">
<title>&#45;5&#45;&gt;14</title>
<path fill="none" stroke="#ff0000" stroke-width=".3381" d="M558.4302,-149.442C554.3419,-148.0036 549.7815,-146.5554 545.5061,-145.5391 428.5834,-117.7444 389.3572,-153.5026 277.5061,-109.5391 276.0714,-108.9752 274.6403,-108.3258 273.2259,-107.6131"/>
<polygon fill="#ff0000" stroke="#ff0000" stroke-width=".3381" points="274.643,-104.3811 264.27,-102.2243 271.0339,-110.379 274.643,-104.3811"/>
</g>
<!-- &#45;5&#45;&gt;15 -->
<g id="edge79" class="edge">
<title>&#45;5&#45;&gt;15</title>
<path fill="none" stroke="#00ff00" stroke-width=".1926" d="M584.6443,-148.5432C602.1249,-140.4042 633.8133,-125.0833 659.5061,-109.5391 660.7921,-108.7611 662.0961,-107.9453 663.403,-107.106"/>
<polygon fill="#00ff00" stroke="#00ff00" stroke-width=".1926" points="665.5709,-109.8659 671.9107,-101.3772 661.661,-104.0595 665.5709,-109.8659"/>
</g>
<!-- &#45;5&#45;&gt;16 -->
<g id="edge43" class="edge">
<title>&#45;5&#45;&gt;16</title>
<path fill="none" stroke="#00ff00" stroke-width=".1233" d="M579.5707,-145.4308C587.1579,-136.8618 598.8386,-123.6694 608.9956,-112.1979"/>
<polygon fill="#00ff00" stroke="#00ff00" stroke-width=".1233" points="611.7063,-114.4162 615.7149,-104.609 606.4654,-109.7758 611.7063,-114.4162"/>
</g>
<!-- &#45;5&#45;&gt;17 -->
<g id="edge22" class="edge">
<title>&#45;5&#45;&gt;17</title>
<path fill="none" stroke="#00ff00" stroke-width=".2042" d="M584.6783,-152.9718C630.4506,-147.4102 782.2662,-127.966 827.5061,-109.5391 829.153,-108.8683 830.801,-108.0966 832.4298,-107.2544"/>
<polygon fill="#00ff00" stroke="#00ff00" stroke-width=".2042" points="834.6319,-110.015 841.4083,-101.8706 831.032,-104.0115 834.6319,-110.015"/>
</g>
<!-- &#45;5&#45;&gt;18 -->
<g id="edge96" class="edge">
<title>&#45;5&#45;&gt;18</title>
<path fill="none" stroke="#ff0000" stroke-width=".4878" d="M558.3584,-149.7128C554.2671,-148.2854 549.7232,-146.7753 545.5061,-145.5391 480.1295,-126.3743 458.7591,-137.2149 396.5061,-109.5391 394.8811,-108.8167 393.2503,-108.0048 391.6346,-107.1318"/>
<polygon fill="#ff0000" stroke="#ff0000" stroke-width=".4878" points="393.0496,-103.8945 382.6925,-101.6626 389.3972,-109.8661 393.0496,-103.8945"/>
</g>
<!-- &#45;6 -->
<g id="node6" class="node">
<title>&#45;6</title>
<polygon fill="#d3d3d3" stroke="#000000" points="349.5061,-163.5391 323.5061,-163.5391 323.5061,-145.5391 349.5061,-145.5391 349.5061,-163.5391"/>
<text text-anchor="middle" x="336.5061" y="-152.3391" font-family="Times,serif" font-size="9.00" fill="#000000">&#45;6</text>
</g>
<!-- &#45;6&#45;&gt;6 -->
<g id="edge58" class="edge">
<title>&#45;6&#45;&gt;6</title>
<path fill="none" stroke="#00ff00" stroke-width=".1902" d="M349.5177,-149.2229C378.5741,-137.3504 446.2262,-109.7024 446.5061,-109.5391 448.2565,-108.518 450.0179,-107.3894 451.7539,-106.2021"/>
<polygon fill="#00ff00" stroke="#00ff00" stroke-width=".1902" points="454.1366,-108.7911 460.0559,-100.0041 449.9489,-103.1819 454.1366,-108.7911"/>
</g>
<!-- &#45;6&#45;&gt;7 -->
<g id="edge12" class="edge">
<title>&#45;6&#45;&gt;7</title>
<path fill="none" stroke="#00ff00" stroke-width=".3907" d="M323.1766,-148.5359C320.3541,-147.4211 317.3637,-146.3531 314.5061,-145.5391 221.7481,-119.1179 188.3013,-149.4657 100.5061,-109.5391 98.7048,-108.7199 96.9256,-107.7376 95.1965,-106.6525"/>
<polygon fill="#00ff00" stroke="#00ff00" stroke-width=".3907" points="97.2169,-103.7934 87.0989,-100.6509 93.0488,-109.4172 97.2169,-103.7934"/>
</g>
<!-- &#45;6&#45;&gt;8 -->
<g id="edge9" class="edge">
<title>&#45;6&#45;&gt;8</title>
<path fill="none" stroke="#ff0000" stroke-width=".2766" d="M349.0363,-145.3871C361.2583,-136.4028 380.3199,-122.2376 396.5061,-109.5391 397.9029,-108.4433 399.336,-107.3053 400.7753,-106.1523"/>
<polygon fill="#ff0000" stroke="#ff0000" stroke-width=".2766" points="403.3197,-108.5947 408.8744,-99.5728 398.9059,-103.1616 403.3197,-108.5947"/>
</g>
<!-- &#45;6&#45;&gt;11 -->
<g id="edge36" class="edge">
<title>&#45;6&#45;&gt;11</title>
<path fill="none" stroke="#ff0000" stroke-width=".1623" d="M332.4738,-145.4308C329.2422,-138.1312 324.5253,-127.4766 320.0594,-117.3887"/>
<polygon fill="#ff0000" stroke="#ff0000" stroke-width=".1623" points="323.1597,-115.7457 315.9111,-108.0186 316.7589,-118.5794 323.1597,-115.7457"/>
</g>
<!-- &#45;6&#45;&gt;12 -->
<g id="edge61" class="edge">
<title>&#45;6&#45;&gt;12</title>
<path fill="none" stroke="#00ff00" stroke-width=".3294" d="M323.5025,-149.1452C320.5513,-147.9418 317.4261,-146.6836 314.5061,-145.5391 272.0805,-128.9105 258.7737,-130.8689 218.5061,-109.5391 217.1779,-108.8356 215.8397,-108.0801 214.5055,-107.2889"/>
<polygon fill="#00ff00" stroke="#00ff00" stroke-width=".3294" points="216.2024,-104.2181 205.9056,-101.7228 212.3989,-110.0947 216.2024,-104.2181"/>
</g>
<!-- &#45;6&#45;&gt;16 -->
<g id="edge30" class="edge">
<title>&#45;6&#45;&gt;16</title>
<path fill="none" stroke="#ff0000" stroke-width=".289" d="M349.8242,-148.4951C352.6475,-147.3833 355.6412,-146.3268 358.5061,-145.5391 462.931,-116.8297 498.6904,-149.099 599.5061,-109.5391 601.1615,-108.8895 602.8161,-108.1344 604.4499,-107.3048"/>
<polygon fill="#ff0000" stroke="#ff0000" stroke-width=".289" points="606.637,-110.0763 613.4425,-101.9562 603.0586,-104.06 606.637,-110.0763"/>
</g>
<!-- &#45;6&#45;&gt;18 -->
<g id="edge28" class="edge">
<title>&#45;6&#45;&gt;18</title>
<path fill="none" stroke="#ff0000" stroke-width=".307" d="M340.6775,-145.4308C344.0796,-138.0021 349.0731,-127.0987 353.7648,-116.8541"/>
<polygon fill="#ff0000" stroke="#ff0000" stroke-width=".307" points="356.9527,-118.2989 357.9344,-107.7496 350.5883,-115.3842 356.9527,-118.2989"/>
</g>
<!-- &#45;6&#45;&gt;19 -->
<g id="edge35" class="edge">
<title>&#45;6&#45;&gt;19</title>
<path fill="none" stroke="#ff0000" stroke-width=".1937" d="M323.1957,-148.4668C320.3718,-147.357 317.376,-146.3085 314.5061,-145.5391 200.1257,-114.8758 161.0158,-152.0917 50.5061,-109.5391 48.8466,-108.9001 47.1888,-108.1532 45.5525,-107.3299"/>
<polygon fill="#ff0000" stroke="#ff0000" stroke-width=".1937" points="46.9407,-104.0843 36.5531,-101.9988 43.373,-110.1069 46.9407,-104.0843"/>
</g>
<!-- &#45;7 -->
<g id="node7" class="node">
<title>&#45;7</title>
<polygon fill="#d3d3d3" stroke="#000000" points="701.5061,-163.5391 675.5061,-163.5391 675.5061,-145.5391 701.5061,-145.5391 701.5061,-163.5391"/>
<text text-anchor="middle" x="688.5061" y="-152.3391" font-family="Times,serif" font-size="9.00" fill="#000000">&#45;7</text>
</g>
<!-- &#45;7&#45;&gt;4 -->
<g id="edge72" class="edge">
<title>&#45;7&#45;&gt;4</title>
<path fill="none" stroke="#ff0000" stroke-width=".1638" d="M701.6686,-148.9763C719.4832,-141.207 751.9757,-126.1764 777.5061,-109.5391 778.9934,-108.5698 780.4948,-107.5271 781.9841,-106.4439"/>
<polygon fill="#ff0000" stroke="#ff0000" stroke-width=".1638" points="784.4735,-108.9406 790.1989,-100.0259 780.1639,-103.4244 784.4735,-108.9406"/>
</g>
<!-- &#45;7&#45;&gt;6 -->
<g id="edge46" class="edge">
<title>&#45;7&#45;&gt;6</title>
<path fill="none" stroke="#00ff00" stroke-width=".1557" d="M675.4138,-153.4017C643.6325,-150.2334 560.4642,-139.4823 498.5061,-109.5391 496.4874,-108.5635 494.4804,-107.4093 492.5283,-106.1534"/>
<polygon fill="#00ff00" stroke="#00ff00" stroke-width=".1557" points="494.5909,-103.3258 484.4564,-100.2367 490.4526,-108.9715 494.5909,-103.3258"/>
</g>
<!-- &#45;7&#45;&gt;8 -->
<g id="edge13" class="edge">
<title>&#45;7&#45;&gt;8</title>
<path fill="none" stroke="#ff0000" stroke-width=".1785" d="M675.4547,-152.9403C631.4969,-147.4262 489.2654,-128.4993 447.5061,-109.5391 445.4646,-108.6122 443.4417,-107.4918 441.4791,-106.2584"/>
<polygon fill="#ff0000" stroke="#ff0000" stroke-width=".1785" points="443.5369,-103.4272 433.3906,-100.3771 439.4203,-109.0888 443.5369,-103.4272"/>
</g>
<!-- &#45;7&#45;&gt;13 -->
<g id="edge32" class="edge">
<title>&#45;7&#45;&gt;13</title>
<path fill="none" stroke="#ff0000" stroke-width=".29" d="M696.7098,-145.4308C704.4792,-136.8046 716.4685,-123.4933 726.8484,-111.9687"/>
<polygon fill="#ff0000" stroke="#ff0000" stroke-width=".29" points="729.614,-114.1279 733.7058,-104.3551 724.4127,-109.4432 729.614,-114.1279"/>
</g>
<!-- &#45;7&#45;&gt;15 -->
<g id="edge17" class="edge">
<title>&#45;7&#45;&gt;15</title>
<path fill="none" stroke="#00ff00" stroke-width=".3665" d="M688.5061,-145.4308C688.5061,-138.7387 688.5061,-129.2268 688.5061,-119.917"/>
<polygon fill="#00ff00" stroke="#00ff00" stroke-width=".3665" points="692.0062,-119.6528 688.5061,-109.6528 685.0062,-119.6528 692.0062,-119.6528"/>
</g>
<!-- &#45;7&#45;&gt;16 -->
<g id="edge69" class="edge">
<title>&#45;7&#45;&gt;16</title>
<path fill="none" stroke="#ff0000" stroke-width=".3282" d="M680.3024,-145.4308C672.533,-136.8046 660.5437,-123.4933 650.1638,-111.9687"/>
<polygon fill="#ff0000" stroke="#ff0000" stroke-width=".3282" points="652.5995,-109.4432 643.3064,-104.3551 647.3982,-114.1279 652.5995,-109.4432"/>
</g>
<!-- &#45;7&#45;&gt;17 -->
<g id="edge68" class="edge">
<title>&#45;7&#45;&gt;17</title>
<path fill="none" stroke="#ff0000" stroke-width=".2104" d="M701.633,-151.624C726.8728,-145.7338 783.561,-131.1118 827.5061,-109.5391 829.0635,-108.7746 830.6325,-107.9377 832.1926,-107.0528"/>
<polygon fill="#ff0000" stroke="#ff0000" stroke-width=".2104" points="834.2555,-109.8911 840.8883,-101.6294 830.5511,-103.9516 834.2555,-109.8911"/>
</g>
<!-- &#45;8 -->
<g id="node8" class="node">
<title>&#45;8</title>
<polygon fill="#d3d3d3" stroke="#000000" points="485.5061,-163.5391 459.5061,-163.5391 459.5061,-145.5391 485.5061,-145.5391 485.5061,-163.5391"/>
<text text-anchor="middle" x="472.5061" y="-152.3391" font-family="Times,serif" font-size="9.00" fill="#000000">&#45;8</text>
</g>
<!-- &#45;8&#45;&gt;5 -->
<g id="edge88" class="edge">
<title>&#45;8&#45;&gt;5</title>
<path fill="none" stroke="#00ff00" stroke-width=".6044" d="M479.5974,-145.4308C486.6452,-136.3784 497.7101,-122.1663 506.9688,-110.2741"/>
<polygon fill="#00ff00" stroke="#00ff00" stroke-width=".6044" points="509.9265,-112.1724 513.3081,-102.1317 504.4031,-107.8721 509.9265,-112.1724"/>
</g>
<!-- &#45;8&#45;&gt;6 -->
<g id="edge94" class="edge">
<title>&#45;8&#45;&gt;6</title>
<path fill="none" stroke="#00ff00" stroke-width=".49" d="M472.5061,-145.4308C472.5061,-137.6791 472.5061,-126.144 472.5061,-115.5219"/>
<polygon fill="#00ff00" stroke="#00ff00" stroke-width=".49" points="476.0062,-115.3781 472.5061,-105.3782 469.0062,-115.3782 476.0062,-115.3781"/>
</g>
<!-- &#45;8&#45;&gt;7 -->
<g id="edge81" class="edge">
<title>&#45;8&#45;&gt;7</title>
<path fill="none" stroke="#00ff00" stroke-width=".3459" d="M459.3511,-152.811C445.2857,-150.9719 422.3267,-147.9946 402.5061,-145.5391 268.3591,-128.9202 224.8601,-162.5267 100.5061,-109.5391 98.6857,-108.7634 96.8926,-107.8126 95.1538,-106.7495"/>
<polygon fill="#00ff00" stroke="#00ff00" stroke-width=".3459" points="97.1696,-103.8874 87.0375,-100.7902 93.0267,-109.5298 97.1696,-103.8874"/>
</g>
<!-- &#45;8&#45;&gt;10 -->
<g id="edge50" class="edge">
<title>&#45;8&#45;&gt;10</title>
<path fill="none" stroke="#ff0000" stroke-width=".3251" d="M459.3419,-152.8219C401.6958,-145.2799 173.7543,-115.2158 159.5061,-109.5391 158.074,-108.9685 156.6451,-108.3139 155.2323,-107.5969"/>
<polygon fill="#ff0000" stroke="#ff0000" stroke-width=".3251" points="156.6519,-104.3656 146.2819,-102.1941 153.0343,-110.3584 156.6519,-104.3656"/>
</g>
<!-- &#45;8&#45;&gt;15 -->
<g id="edge57" class="edge">
<title>&#45;8&#45;&gt;15</title>
<path fill="none" stroke="#ff0000" stroke-width=".2551" d="M485.7257,-150.2015C490.6546,-148.6464 496.3132,-146.9343 501.5061,-145.5391 571.0614,-126.8517 593.7364,-138.8905 659.5061,-109.5391 660.8786,-108.9266 662.2527,-108.2448 663.6156,-107.5125"/>
<polygon fill="#ff0000" stroke="#ff0000" stroke-width=".2551" points="665.6407,-110.3756 672.3124,-102.1452 661.9644,-104.4187 665.6407,-110.3756"/>
</g>
<!-- &#45;8&#45;&gt;16 -->
<g id="edge10" class="edge">
<title>&#45;8&#45;&gt;16</title>
<path fill="none" stroke="#ff0000" stroke-width=".2263" d="M485.9298,-150.2714C514.1787,-141.2112 578.8599,-120.0282 599.5061,-109.5391 601.0528,-108.7533 602.6135,-107.8997 604.1671,-107.0019"/>
<polygon fill="#ff0000" stroke="#ff0000" stroke-width=".2263" points="606.2448,-109.8298 612.8445,-101.5416 602.5166,-103.9052 606.2448,-109.8298"/>
</g>
<!-- &#45;8&#45;&gt;18 -->
<g id="edge1" class="edge">
<title>&#45;8&#45;&gt;18</title>
<path fill="none" stroke="#00ff00" stroke-width=".3555" d="M459.4413,-147.1482C444.1749,-138.4328 418.2346,-123.3774 396.5061,-109.5391 395.0428,-108.6071 393.5476,-107.6388 392.0444,-106.6526"/>
<polygon fill="#00ff00" stroke="#00ff00" stroke-width=".3555" points="393.7683,-103.5947 383.5118,-100.9387 389.8734,-109.4111 393.7683,-103.5947"/>
</g>
<!-- 0 -->
<g id="node9" class="node">
<title>0</title>
<ellipse fill="#add8e6" stroke="#000000" cx="307.5061" cy="-16.2635" rx="16.0303" ry="16.0303"/>
<text text-anchor="middle" x="307.5061" y="-14.0635" font-family="Times,serif" font-size="9.00" fill="#000000">0</text>
</g>
<!-- 1 -->
<g id="node10" class="node">
<title>1</title>
<ellipse fill="#add8e6" stroke="#000000" cx="629.5061" cy="-16.2635" rx="16.0303" ry="16.0303"/>
<text text-anchor="middle" x="629.5061" y="-14.0635" font-family="Times,serif" font-size="9.00" fill="#000000">1</text>
</g>
<!-- 2 -->
<g id="node11" class="node">
<title>2</title>
<ellipse fill="#add8e6" stroke="#000000" cx="548.5061" cy="-16.2635" rx="16.0303" ry="16.0303"/>
<text text-anchor="middle" x="548.5061" y="-14.0635" font-family="Times,serif" font-size="9.00" fill="#000000">2</text>
</g>
<!-- 3 -->
<g id="node12" class="node">
<title>3</title>
<ellipse fill="#add8e6" stroke="#000000" cx="421.5061" cy="-16.2635" rx="16.0303" ry="16.0303"/>
<text text-anchor="middle" x="421.5061" y="-14.0635" font-family="Times,serif" font-size="9.00" fill="#000000">3</text>
</g>
<!-- 4&#45;&gt;2 -->
<g id="edge90" class="edge">
<title>4&#45;&gt;2</title>
<path fill="none" stroke="#00ff00" stroke-width=".2001" d="M790.8617,-77.5257C786.9017,-74.1729 782.2665,-70.8034 777.5061,-68.5269 706.6547,-34.6451 680.7176,-51.4928 604.5061,-32.5269 594.4055,-30.0133 583.3856,-26.8955 573.8139,-24.0643"/>
<polygon fill="#00ff00" stroke="#00ff00" stroke-width=".2001" points="574.6924,-20.6737 564.1081,-21.1467 572.6772,-27.3774 574.6924,-20.6737"/>
</g>
<!-- 5&#45;&gt;2 -->
<g id="edge11" class="edge">
<title>5&#45;&gt;2</title>
<path fill="none" stroke="#00ff00" stroke-width=".1165" d="M528.808,-73.6005C532.023,-64.2421 536.2019,-52.0784 539.8829,-41.3637"/>
<polygon fill="#00ff00" stroke="#00ff00" stroke-width=".1165" points="543.2728,-42.2684 543.2119,-31.6738 536.6526,-39.994 543.2728,-42.2684"/>
</g>
<!-- 6&#45;&gt;0 -->
<g id="edge54" class="edge">
<title>6&#45;&gt;0</title>
<path fill="none" stroke="#ff0000" stroke-width=".2139" d="M460.3653,-78.1935C456.1705,-74.8008 451.3126,-71.239 446.5061,-68.5269 409.3105,-47.5388 362.0493,-31.829 333.3244,-23.3546"/>
<polygon fill="#ff0000" stroke="#ff0000" stroke-width=".2139" points="334.2112,-19.9678 323.6331,-20.5635 332.2739,-26.6944 334.2112,-19.9678"/>
</g>
<!-- 6&#45;&gt;2 -->
<g id="edge66" class="edge">
<title>6&#45;&gt;2</title>
<path fill="none" stroke="#00ff00" stroke-width=".2778" d="M484.3811,-77.6628C496.3576,-66.1954 515.0445,-48.3027 529.1622,-34.7851"/>
<polygon fill="#00ff00" stroke="#00ff00" stroke-width=".2778" points="531.6613,-37.238 536.4637,-27.794 526.8202,-32.1819 531.6613,-37.238"/>
</g>
<!-- 6&#45;&gt;3 -->
<g id="edge64" class="edge">
<title>6&#45;&gt;3</title>
<path fill="none" stroke="#00ff00" stroke-width=".2783" d="M463.1519,-75.686C455.7934,-65.1865 445.3877,-50.339 436.8188,-38.1124"/>
<polygon fill="#00ff00" stroke="#00ff00" stroke-width=".2783" points="439.5792,-35.9527 430.9737,-29.7723 433.8468,-39.9702 439.5792,-35.9527"/>
</g>
<!-- 8&#45;&gt;3 -->
<g id="edge26" class="edge">
<title>8&#45;&gt;3</title>
<path fill="none" stroke="#00ff00" stroke-width=".1173" d="M421.5061,-72.5205C421.5061,-63.7747 421.5061,-52.8192 421.5061,-42.9054"/>
<polygon fill="#00ff00" stroke="#00ff00" stroke-width=".1173" points="425.0062,-42.7106 421.5061,-32.7106 418.0062,-42.7107 425.0062,-42.7106"/>
</g>
<!-- 9&#45;&gt;1 -->
<g id="edge38" class="edge">
<title>9&#45;&gt;1</title>
<path fill="none" stroke="#ff0000" stroke-width=".1398" d="M584.339,-76.0233C592.3726,-65.3942 603.8944,-50.1498 613.2902,-37.7185"/>
<polygon fill="#ff0000" stroke="#ff0000" stroke-width=".1398" points="616.1488,-39.741 619.3862,-29.6529 610.5644,-35.5202 616.1488,-39.741"/>
</g>
<!-- 9&#45;&gt;2 -->
<g id="edge24" class="edge">
<title>9&#45;&gt;2</title>
<path fill="none" stroke="#ff0000" stroke-width=".1702" d="M568.9922,-73.6005C565.6485,-64.2421 561.3025,-52.0784 557.4742,-41.3637"/>
<polygon fill="#ff0000" stroke="#ff0000" stroke-width=".1702" points="560.6727,-39.9131 554.0121,-31.6738 554.0808,-42.2684 560.6727,-39.9131"/>
</g>
<!-- 10&#45;&gt;0 -->
<g id="edge75" class="edge">
<title>10&#45;&gt;0</title>
<path fill="none" stroke="#ff0000" stroke-width=".2598" d="M146.8744,-76.2835C150.8735,-73.5042 155.2343,-70.7371 159.5061,-68.5269 200.2069,-47.4683 251.302,-31.5233 281.5707,-23.0612"/>
<polygon fill="#ff0000" stroke="#ff0000" stroke-width=".2598" points="282.6353,-26.3987 291.3573,-20.384 280.7882,-19.6468 282.6353,-26.3987"/>
</g>
<!-- 10&#45;&gt;2 -->
<g id="edge15" class="edge">
<title>10&#45;&gt;2</title>
<path fill="none" stroke="#00ff00" stroke-width=".3751" d="M146.2589,-75.8133C150.3505,-72.9831 154.9072,-70.3114 159.5061,-68.5269 279.3554,-22.0236 319.2349,-50.6504 446.5061,-32.5269 472.3574,-28.8457 501.8018,-24.0903 522.3874,-20.6737"/>
<polygon fill="#00ff00" stroke="#00ff00" stroke-width=".3751" points="522.9919,-24.1213 532.2788,-19.022 521.8389,-17.2169 522.9919,-24.1213"/>
</g>
<!-- 11&#45;&gt;2 -->
<g id="edge63" class="edge">
<title>11&#45;&gt;2</title>
<path fill="none" stroke="#ff0000" stroke-width=".1837" d="M323.7252,-75.977C327.7304,-73.2102 332.1314,-70.5258 336.5061,-68.5269 399.6488,-39.6758 480.9426,-25.3571 522.1045,-19.5434"/>
<polygon fill="#ff0000" stroke="#ff0000" stroke-width=".1837" points="522.6968,-22.9952 532.1364,-18.1842 521.757,-16.0586 522.6968,-22.9952"/>
</g>
<!-- 11&#45;&gt;3 -->
<g id="edge78" class="edge">
<title>11&#45;&gt;3</title>
<path fill="none" stroke="#00ff00" stroke-width=".2048" d="M324.248,-76.9205C328.2317,-74.1149 332.4919,-71.1763 336.5061,-68.5269 357.1225,-54.9199 381.1437,-40.2562 398.3804,-29.9347"/>
<polygon fill="#00ff00" stroke="#00ff00" stroke-width=".2048" points="400.3958,-32.808 407.1937,-24.6815 396.8118,-26.7951 400.3958,-32.808"/>
</g>
<!-- 12&#45;&gt;0 -->
<g id="edge39" class="edge">
<title>12&#45;&gt;0</title>
<path fill="none" stroke="#ff0000" stroke-width=".1581" d="M206.2093,-76.8612C210.1946,-74.058 214.4652,-71.1354 218.5061,-68.5269 240.4278,-54.3757 266.2068,-39.4134 284.3621,-29.1414"/>
<polygon fill="#ff0000" stroke="#ff0000" stroke-width=".1581" points="286.1004,-32.1794 293.1005,-24.2265 282.6687,-26.0783 286.1004,-32.1794"/>
</g>
<!-- 13&#45;&gt;2 -->
<g id="edge45" class="edge">
<title>13&#45;&gt;2</title>
<path fill="none" stroke="#00ff00" stroke-width=".2577" d="M731.2025,-76.1552C727.2008,-73.3811 722.8225,-70.6487 718.5061,-68.5269 705.3586,-62.0642 618.2733,-36.4599 574.1034,-23.647"/>
<polygon fill="#00ff00" stroke="#00ff00" stroke-width=".2577" points="574.9468,-20.2475 564.3679,-20.8285 573.0001,-26.9714 574.9468,-20.2475"/>
</g>
<!-- 13&#45;&gt;3 -->
<g id="edge93" class="edge">
<title>13&#45;&gt;3</title>
<path fill="none" stroke="#00ff00" stroke-width=".4446" d="M731.6888,-75.9736C727.5991,-73.1385 723.0596,-70.4244 718.5061,-68.5269 705.9772,-63.3059 518.8045,-32.24 448.1951,-20.6339"/>
<polygon fill="#00ff00" stroke="#00ff00" stroke-width=".4446" points="448.3431,-17.1114 437.9081,-18.9452 447.2091,-24.0189 448.3431,-17.1114"/>
</g>
<!-- 14&#45;&gt;0 -->
<g id="edge4" class="edge">
<title>14&#45;&gt;0</title>
<path fill="none" stroke="#00ff00" stroke-width=".4745" d="M261.6001,-72.8831C270.2327,-62.2358 281.6136,-48.1988 290.8836,-36.7653"/>
<polygon fill="#00ff00" stroke="#00ff00" stroke-width=".4745" points="293.6119,-38.9577 297.1911,-28.9858 288.1745,-34.5492 293.6119,-38.9577"/>
</g>
<!-- 14&#45;&gt;2 -->
<g id="edge51" class="edge">
<title>14&#45;&gt;2</title>
<path fill="none" stroke="#00ff00" stroke-width=".1409" d="M264.653,-75.8136C268.6613,-73.0536 273.0817,-70.4132 277.5061,-68.5269 299.954,-58.9567 458.2824,-31.5226 522.0197,-20.7156"/>
<polygon fill="#00ff00" stroke="#00ff00" stroke-width=".1409" points="522.8106,-24.1316 532.0872,-19.0136 521.6437,-17.2296 522.8106,-24.1316"/>
</g>
<!-- 14&#45;&gt;3 -->
<g id="edge27" class="edge">
<title>14&#45;&gt;3</title>
<path fill="none" stroke="#ff0000" stroke-width=".1016" d="M264.8884,-76.3104C268.8869,-73.53 273.244,-70.7557 277.5061,-68.5269 316.7576,-48.0014 365.8846,-32.0623 395.4245,-23.4293"/>
<polygon fill="#ff0000" stroke="#ff0000" stroke-width=".1016" points="396.7156,-26.7004 405.3669,-20.5844 394.7898,-19.9705 396.7156,-26.7004"/>
</g>
<!-- 15&#45;&gt;1 -->
<g id="edge47" class="edge">
<title>15&#45;&gt;1</title>
<path fill="none" stroke="#ff0000" stroke-width=".1863" d="M675.4121,-72.8831C666.7795,-62.2358 655.3986,-48.1988 646.1286,-36.7653"/>
<polygon fill="#ff0000" stroke="#ff0000" stroke-width=".1863" points="648.8377,-34.5492 639.8211,-28.9858 643.4003,-38.9577 648.8377,-34.5492"/>
</g>
<!-- 15&#45;&gt;2 -->
<g id="edge7" class="edge">
<title>15&#45;&gt;2</title>
<path fill="none" stroke="#ff0000" stroke-width=".2944" d="M671.9688,-76.5909C667.9767,-73.7989 663.6613,-70.9491 659.5061,-68.5269 630.8128,-51.8011 595.8935,-36.0612 572.9774,-26.3113"/>
<polygon fill="#ff0000" stroke="#ff0000" stroke-width=".2944" points="574.2265,-23.0398 563.6514,-22.3925 571.5147,-29.4932 574.2265,-23.0398"/>
</g>
<!-- 16&#45;&gt;0 -->
<g id="edge8" class="edge">
<title>16&#45;&gt;0</title>
<path fill="none" stroke="#00ff00" stroke-width=".6875" d="M613.4062,-76.2005C609.0949,-73.2885 604.2956,-70.482 599.5061,-68.5269 514.6717,-33.8977 486.6862,-48.7626 396.5061,-32.5269 375.3832,-28.724 351.4538,-24.3474 333.7315,-21.0929"/>
<polygon fill="#00ff00" stroke="#00ff00" stroke-width=".6875" points="334.0476,-17.5925 323.5796,-19.2267 332.782,-24.4771 334.0476,-17.5925"/>
</g>
<!-- 16&#45;&gt;1 -->
<g id="edge86" class="edge">
<title>16&#45;&gt;1</title>
<path fill="none" stroke="#ff0000" stroke-width=".1482" d="M629.5061,-68.3748C629.5061,-60.4568 629.5061,-51.3084 629.5061,-42.9078"/>
<polygon fill="#ff0000" stroke="#ff0000" stroke-width=".1482" points="633.0062,-42.8158 629.5061,-32.8158 626.0062,-42.8158 633.0062,-42.8158"/>
</g>
<!-- 16&#45;&gt;2 -->
<g id="edge14" class="edge">
<title>16&#45;&gt;2</title>
<path fill="none" stroke="#ff0000" stroke-width=".1013" d="M613.8885,-75.0023C600.9761,-63.402 582.5543,-46.852 568.5538,-34.2741"/>
<polygon fill="#ff0000" stroke="#ff0000" stroke-width=".1013" points="570.6744,-31.4742 560.8964,-27.3948 565.9963,-36.6815 570.6744,-31.4742"/>
</g>
<!-- 17&#45;&gt;1 -->
<g id="edge85" class="edge">
<title>17&#45;&gt;1</title>
<path fill="none" stroke="#ff0000" stroke-width=".4367" d="M841.2888,-76.4721C836.9797,-73.5549 832.2109,-70.678 827.5061,-68.5269 769.1359,-41.8397 694.6267,-26.8014 655.7671,-20.254"/>
<polygon fill="#ff0000" stroke="#ff0000" stroke-width=".4367" points="656.2277,-16.783 645.7951,-18.6298 655.1024,-23.6919 656.2277,-16.783"/>
</g>
<!-- 17&#45;&gt;2 -->
<g id="edge56" class="edge">
<title>17&#45;&gt;2</title>
<path fill="none" stroke="#00ff00" stroke-width=".1411" d="M841.427,-76.1491C837.1152,-73.2381 832.3106,-70.4449 827.5061,-68.5269 734.2669,-31.3052 702.451,-54.5681 604.5061,-32.5269 594.3514,-30.2417 583.3208,-27.1689 573.7558,-24.3097"/>
<polygon fill="#00ff00" stroke="#00ff00" stroke-width=".1411" points="574.6494,-20.9229 564.0627,-21.3383 572.5978,-27.6155 574.6494,-20.9229"/>
</g>
<!-- 18&#45;&gt;0 -->
<g id="edge82" class="edge">
<title>18&#45;&gt;0</title>
<path fill="none" stroke="#ff0000" stroke-width=".2954" d="M353.4121,-72.8831C344.7795,-62.2358 333.3986,-48.1988 324.1286,-36.7653"/>
<polygon fill="#ff0000" stroke="#ff0000" stroke-width=".2954" points="326.8377,-34.5492 317.8211,-28.9858 321.4003,-38.9577 326.8377,-34.5492"/>
</g>
<!-- 18&#45;&gt;1 -->
<g id="edge33" class="edge">
<title>18&#45;&gt;1</title>
<path fill="none" stroke="#ff0000" stroke-width=".3839" d="M382.6406,-76.2837C386.9512,-73.3702 391.7415,-70.542 396.5061,-68.5269 470.4426,-37.2564 495.5613,-51.7375 573.5061,-32.5269 583.6123,-30.0361 594.6333,-26.9228 604.2043,-24.0887"/>
<polygon fill="#ff0000" stroke="#ff0000" stroke-width=".3839" points="605.3431,-27.4011 613.9088,-21.1658 603.3243,-20.6986 605.3431,-27.4011"/>
</g>
<!-- 19&#45;&gt;2 -->
<g id="edge52" class="edge">
<title>19&#45;&gt;2</title>
<path fill="none" stroke="#00ff00" stroke-width=".2808" d="M36.497,-75.9165C40.8104,-73.01 45.6379,-70.2771 50.5061,-68.5269 216.8109,-8.738 271.1457,-54.4527 446.5061,-32.5269 472.4165,-29.2873 501.8527,-24.4711 522.4203,-20.92"/>
<polygon fill="#00ff00" stroke="#00ff00" stroke-width=".2808" points="523.0535,-24.3625 532.3018,-19.1935 521.8485,-17.467 523.0535,-24.3625"/>
</g>
</g>
</svg>
