<?xml version="1.0" encoding="UTF-8" standalone="no"?>
<!DOCTYPE svg PUBLIC "-//W3C//DTD SVG 1.1//EN"
 "http://www.w3.org/Graphics/SVG/1.1/DTD/svg11.dtd">
<!-- Generated by graphviz version 2.40.1 (20161225.0304)
 -->
<!-- Title: %3 Pages: 1 -->
<svg width="1103pt" height="326pt"
 viewBox="0.00 0.00 1103.10 325.56" xmlns="http://www.w3.org/2000/svg" xmlns:xlink="http://www.w3.org/1999/xlink">
<g id="graph0" class="graph" transform="scale(1 1) rotate(0) translate(4 321.5635)">
<title>%3</title>
<polygon fill="#ffffff" stroke="transparent" points="-4,4 -4,-321.5635 1099.1042,-321.5635 1099.1042,4 -4,4"/>
<!-- &#45;1 -->
<g id="node1" class="node">
<title>&#45;1</title>
<polygon fill="#d3d3d3" stroke="#000000" points="732.2635,-252.0574 706.2635,-252.0574 706.2635,-234.0574 732.2635,-234.0574 732.2635,-252.0574"/>
<text text-anchor="middle" x="719.2635" y="-240.8574" font-family="Times,serif" font-size="9.00" fill="#000000">&#45;1</text>
</g>
<!-- 2 -->
<g id="node11" class="node">
<title>2</title>
<ellipse fill="#ffffff" stroke="#000000" cx="495.2635" cy="-166.0452" rx="16.0303" ry="16.0303"/>
<text text-anchor="middle" x="495.2635" y="-163.8452" font-family="Times,serif" font-size="9.00" fill="#000000">2</text>
</g>
<!-- &#45;1&#45;&gt;2 -->
<g id="edge44" class="edge">
<title>&#45;1&#45;&gt;2</title>
<path fill="none" stroke="#ff0000" stroke-width=".3533" d="M711.5526,-233.8542C707.6703,-229.794 702.6484,-225.3238 697.2635,-222.5513 625.8903,-185.8046 592.7637,-221.0209 520.2635,-186.5513 518.4764,-185.7016 516.7074,-184.6972 514.9855,-183.5967"/>
<polygon fill="#ff0000" stroke="#ff0000" stroke-width=".3533" points="517.0097,-180.7401 506.9017,-177.5654 512.8237,-186.3506 517.0097,-180.7401"/>
</g>
<!-- 5 -->
<g id="node14" class="node">
<title>5</title>
<ellipse fill="#ffffff" stroke="#000000" cx="719.2635" cy="-166.0452" rx="16.0303" ry="16.0303"/>
<text text-anchor="middle" x="719.2635" y="-163.8452" font-family="Times,serif" font-size="9.00" fill="#000000">5</text>
</g>
<!-- &#45;1&#45;&gt;5 -->
<g id="edge26" class="edge">
<title>&#45;1&#45;&gt;5</title>
<path fill="none" stroke="#00ff00" stroke-width=".1575" d="M719.2635,-233.9207C719.2635,-223.8241 719.2635,-207.0951 719.2635,-192.7721"/>
<polygon fill="#00ff00" stroke="#00ff00" stroke-width=".1575" points="722.7636,-192.4379 719.2635,-182.4379 715.7636,-192.4379 722.7636,-192.4379"/>
</g>
<!-- 6 -->
<g id="node15" class="node">
<title>6</title>
<ellipse fill="#ffffff" stroke="#000000" cx="829.2635" cy="-166.0452" rx="16.0303" ry="16.0303"/>
<text text-anchor="middle" x="829.2635" y="-163.8452" font-family="Times,serif" font-size="9.00" fill="#000000">6</text>
</g>
<!-- &#45;1&#45;&gt;6 -->
<g id="edge25" class="edge">
<title>&#45;1&#45;&gt;6</title>
<path fill="none" stroke="#ff0000" stroke-width=".3164" stroke-dasharray="1,5" d="M732.5022,-234.8383C749.4636,-224.1772 779.6165,-204.7808 804.2635,-186.5513 805.6908,-185.4956 807.147,-184.3878 808.6031,-183.2569"/>
<polygon fill="#ff0000" stroke="#ff0000" stroke-width=".3164" points="811.1309,-185.7161 816.7412,-176.7286 806.7508,-180.2559 811.1309,-185.7161"/>
</g>
<!-- 12 -->
<g id="node21" class="node">
<title>12</title>
<ellipse fill="#ffffff" stroke="#000000" cx="675.2635" cy="-89.033" rx="20.5122" ry="20.5122"/>
<text text-anchor="middle" x="675.2635" y="-86.833" font-family="Times,serif" font-size="9.00" fill="#000000">12</text>
</g>
<!-- &#45;1&#45;&gt;12 -->
<g id="edge20" class="edge">
<title>&#45;1&#45;&gt;12</title>
<path fill="none" stroke="#ff0000" stroke-width=".2389" d="M732.3434,-238.5138C764.8202,-227.1051 847.0492,-197.3917 854.2635,-186.5513 864.3621,-171.3768 865.0391,-160.2405 854.2635,-145.5391 836.5693,-121.3986 752.1061,-102.8086 705.8035,-94.2328"/>
<polygon fill="#ff0000" stroke="#ff0000" stroke-width=".2389" points="706.1904,-90.7461 695.7276,-92.4132 704.9464,-97.6347 706.1904,-90.7461"/>
</g>
<!-- 13 -->
<g id="node22" class="node">
<title>13</title>
<ellipse fill="#ffffff" stroke="#000000" cx="224.2635" cy="-166.0452" rx="20.5122" ry="20.5122"/>
<text text-anchor="middle" x="224.2635" y="-163.8452" font-family="Times,serif" font-size="9.00" fill="#000000">13</text>
</g>
<!-- &#45;1&#45;&gt;13 -->
<g id="edge74" class="edge">
<title>&#45;1&#45;&gt;13</title>
<path fill="none" stroke="#00ff00" stroke-width=".2184" d="M712.087,-233.9861C708.188,-229.7447 702.9957,-225.0809 697.2635,-222.5513 516.1347,-142.6213 439.3638,-254.1021 253.2635,-186.5513 251.8144,-186.0253 250.3718,-185.4065 248.9482,-184.718"/>
<polygon fill="#00ff00" stroke="#00ff00" stroke-width=".2184" points="250.3522,-181.4823 239.9623,-179.4086 246.7913,-187.5089 250.3522,-181.4823"/>
</g>
<!-- 16 -->
<g id="node25" class="node">
<title>16</title>
<ellipse fill="#ffffff" stroke="#000000" cx="774.2635" cy="-166.0452" rx="20.5122" ry="20.5122"/>
<text text-anchor="middle" x="774.2635" y="-163.8452" font-family="Times,serif" font-size="9.00" fill="#000000">16</text>
</g>
<!-- &#45;1&#45;&gt;16 -->
<g id="edge33" class="edge">
<title>&#45;1&#45;&gt;16</title>
<path fill="none" stroke="#00ff00" stroke-width=".3876" d="M725.7887,-233.9207C733.3052,-223.3958 745.9689,-205.6638 756.4679,-190.9629"/>
<polygon fill="#00ff00" stroke="#00ff00" stroke-width=".3876" points="759.3805,-192.9069 762.3441,-182.7349 753.6841,-188.8386 759.3805,-192.9069"/>
</g>
<!-- &#45;2 -->
<g id="node2" class="node">
<title>&#45;2</title>
<polygon fill="#d3d3d3" stroke="#000000" points="322.2635,-252.0574 296.2635,-252.0574 296.2635,-234.0574 322.2635,-234.0574 322.2635,-252.0574"/>
<text text-anchor="middle" x="309.2635" y="-240.8574" font-family="Times,serif" font-size="9.00" fill="#000000">&#45;2</text>
</g>
<!-- 7 -->
<g id="node16" class="node">
<title>7</title>
<ellipse fill="#ffffff" stroke="#000000" cx="16.2635" cy="-166.0452" rx="16.0303" ry="16.0303"/>
<text text-anchor="middle" x="16.2635" y="-163.8452" font-family="Times,serif" font-size="9.00" fill="#000000">7</text>
</g>
<!-- &#45;2&#45;&gt;7 -->
<g id="edge22" class="edge">
<title>&#45;2&#45;&gt;7</title>
<path fill="none" stroke="#00ff00" stroke-width=".2032" d="M301.6189,-233.721C297.7511,-229.6317 292.7223,-225.1753 287.2635,-222.5513 188.0703,-174.8701 143.3376,-230.1036 42.2635,-186.5513 40.3628,-185.7323 38.4826,-184.7382 36.6545,-183.6343"/>
<polygon fill="#00ff00" stroke="#00ff00" stroke-width=".2032" points="38.2649,-180.4825 28.0974,-177.5037 34.1881,-186.1728 38.2649,-180.4825"/>
</g>
<!-- &#45;2&#45;&gt;13 -->
<g id="edge54" class="edge">
<title>&#45;2&#45;&gt;13</title>
<path fill="none" stroke="#00ff00" stroke-width=".3528" d="M299.4444,-233.8299C295.6532,-230.2869 291.271,-226.2156 287.2635,-222.5513 274.1366,-210.5487 259.3361,-197.2614 247.3806,-186.5887"/>
<polygon fill="#00ff00" stroke="#00ff00" stroke-width=".3528" points="249.4075,-183.7069 239.6137,-179.6656 244.7497,-188.9323 249.4075,-183.7069"/>
</g>
<!-- 14 -->
<g id="node23" class="node">
<title>14</title>
<ellipse fill="#ffffff" stroke="#000000" cx="283.2635" cy="-166.0452" rx="20.5122" ry="20.5122"/>
<text text-anchor="middle" x="283.2635" y="-163.8452" font-family="Times,serif" font-size="9.00" fill="#000000">14</text>
</g>
<!-- &#45;2&#45;&gt;14 -->
<g id="edge67" class="edge">
<title>&#45;2&#45;&gt;14</title>
<path fill="none" stroke="#ff0000" stroke-width=".118" d="M306.1788,-233.9207C302.9532,-224.3664 297.7225,-208.8729 293.0723,-195.0992"/>
<polygon fill="#ff0000" stroke="#ff0000" stroke-width=".118" points="296.3408,-193.8383 289.8259,-185.4833 289.7086,-196.0775 296.3408,-193.8383"/>
</g>
<!-- 17 -->
<g id="node26" class="node">
<title>17</title>
<ellipse fill="#ffffff" stroke="#000000" cx="440.2635" cy="-166.0452" rx="20.5122" ry="20.5122"/>
<text text-anchor="middle" x="440.2635" y="-163.8452" font-family="Times,serif" font-size="9.00" fill="#000000">17</text>
</g>
<!-- &#45;2&#45;&gt;17 -->
<g id="edge49" class="edge">
<title>&#45;2&#45;&gt;17</title>
<path fill="none" stroke="#00ff00" stroke-width=".1806" d="M317.6921,-233.9644C321.5733,-230.1177 326.393,-225.7881 331.2635,-222.5513 363.736,-200.9705 377.4113,-205.8963 411.2635,-186.5513 412.5684,-185.8056 413.8878,-185.0159 415.207,-184.1975"/>
<polygon fill="#00ff00" stroke="#00ff00" stroke-width=".1806" points="417.3489,-186.9771 423.7562,-178.5392 413.4854,-181.1398 417.3489,-186.9771"/>
</g>
<!-- &#45;3 -->
<g id="node3" class="node">
<title>&#45;3</title>
<polygon fill="#d3d3d3" stroke="#000000" points="366.2635,-252.0574 340.2635,-252.0574 340.2635,-234.0574 366.2635,-234.0574 366.2635,-252.0574"/>
<text text-anchor="middle" x="353.2635" y="-240.8574" font-family="Times,serif" font-size="9.00" fill="#000000">&#45;3</text>
</g>
<!-- 3 -->
<g id="node12" class="node">
<title>3</title>
<ellipse fill="#ffffff" stroke="#000000" cx="67.2635" cy="-166.0452" rx="16.0303" ry="16.0303"/>
<text text-anchor="middle" x="67.2635" y="-163.8452" font-family="Times,serif" font-size="9.00" fill="#000000">3</text>
</g>
<!-- &#45;3&#45;&gt;3 -->
<g id="edge12" class="edge">
<title>&#45;3&#45;&gt;3</title>
<path fill="none" stroke="#ff0000" stroke-width=".553" d="M345.6139,-233.7314C341.7451,-229.6443 336.7167,-225.1868 331.2635,-222.5513 234.9418,-175.9995 191.422,-229.0935 93.2635,-186.5513 91.3645,-185.7283 89.4855,-184.7313 87.6584,-183.6254"/>
<polygon fill="#ff0000" stroke="#ff0000" stroke-width=".553" points="89.2692,-180.4737 79.1028,-177.4912 85.1903,-186.1625 89.2692,-180.4737"/>
</g>
<!-- 4 -->
<g id="node13" class="node">
<title>4</title>
<ellipse fill="#ffffff" stroke="#000000" cx="169.2635" cy="-166.0452" rx="16.0303" ry="16.0303"/>
<text text-anchor="middle" x="169.2635" y="-163.8452" font-family="Times,serif" font-size="9.00" fill="#000000">4</text>
</g>
<!-- &#45;3&#45;&gt;4 -->
<g id="edge71" class="edge">
<title>&#45;3&#45;&gt;4</title>
<path fill="none" stroke="#00ff00" stroke-width=".1341" d="M345.4806,-233.9893C341.5826,-229.9586 336.5682,-225.4743 331.2635,-222.5513 276.1239,-192.169 250.3369,-215.1734 194.2635,-186.5513 192.501,-185.6517 190.7499,-184.611 189.0405,-183.4852"/>
<polygon fill="#00ff00" stroke="#00ff00" stroke-width=".1341" points="191.0717,-180.6333 180.9806,-177.4053 186.8562,-186.2217 191.0717,-180.6333"/>
</g>
<!-- &#45;3&#45;&gt;6 -->
<g id="edge28" class="edge">
<title>&#45;3&#45;&gt;6</title>
<path fill="none" stroke="#ff0000" stroke-width=".2958" d="M366.3626,-241.4059C394.0406,-237.9171 460.5124,-229.5426 516.2635,-222.5513 644.2571,-206.5006 685.7363,-237.4563 804.2635,-186.5513 806.0816,-185.7704 807.8731,-184.8158 809.6108,-183.7501"/>
<polygon fill="#ff0000" stroke="#ff0000" stroke-width=".2958" points="811.7404,-186.5285 817.7249,-177.7857 807.5945,-180.8883 811.7404,-186.5285"/>
</g>
<!-- 8 -->
<g id="node17" class="node">
<title>8</title>
<ellipse fill="#ffffff" stroke="#000000" cx="900.2635" cy="-89.033" rx="16.0303" ry="16.0303"/>
<text text-anchor="middle" x="900.2635" y="-86.833" font-family="Times,serif" font-size="9.00" fill="#000000">8</text>
</g>
<!-- &#45;3&#45;&gt;8 -->
<g id="edge1" class="edge">
<title>&#45;3&#45;&gt;8</title>
<path fill="none" stroke="#ff0000" stroke-width=".3212" d="M349.4301,-233.85C342.1395,-214.6971 328.8997,-170.2925 351.2635,-145.5391 377.7679,-116.2026 665.937,-113.6065 705.2635,-109.5391 765.6669,-103.2918 836.5763,-95.7938 874.0188,-91.8217"/>
<polygon fill="#ff0000" stroke="#ff0000" stroke-width=".3212" points="874.5116,-95.2892 884.0863,-90.7531 873.7727,-88.3283 874.5116,-95.2892"/>
</g>
<!-- 9 -->
<g id="node18" class="node">
<title>9</title>
<ellipse fill="#ffffff" stroke="#000000" cx="118.2635" cy="-166.0452" rx="16.0303" ry="16.0303"/>
<text text-anchor="middle" x="118.2635" y="-163.8452" font-family="Times,serif" font-size="9.00" fill="#000000">9</text>
</g>
<!-- &#45;3&#45;&gt;9 -->
<g id="edge17" class="edge">
<title>&#45;3&#45;&gt;9</title>
<path fill="none" stroke="#00ff00" stroke-width=".6436" d="M345.5655,-233.8289C341.6861,-229.7632 336.6628,-225.2955 331.2635,-222.5513 255.8123,-184.2032 221.2311,-221.757 144.2635,-186.5513 142.2246,-185.6187 140.2035,-184.4943 138.2421,-183.2583"/>
<polygon fill="#00ff00" stroke="#00ff00" stroke-width=".6436" points="140.3004,-180.4275 130.1555,-177.3728 136.1812,-186.0873 140.3004,-180.4275"/>
</g>
<!-- 10 -->
<g id="node19" class="node">
<title>10</title>
<ellipse fill="#ffffff" stroke="#000000" cx="381.2635" cy="-166.0452" rx="20.5122" ry="20.5122"/>
<text text-anchor="middle" x="381.2635" y="-163.8452" font-family="Times,serif" font-size="9.00" fill="#000000">10</text>
</g>
<!-- &#45;3&#45;&gt;10 -->
<g id="edge7" class="edge">
<title>&#45;3&#45;&gt;10</title>
<path fill="none" stroke="#ff0000" stroke-width=".637" d="M356.5854,-233.9207C360.0591,-224.3664 365.6922,-208.8729 370.7,-195.0992"/>
<polygon fill="#ff0000" stroke="#ff0000" stroke-width=".637" points="374.0685,-196.0774 374.1962,-185.4833 367.4898,-193.6855 374.0685,-196.0774"/>
</g>
<!-- 11 -->
<g id="node20" class="node">
<title>11</title>
<ellipse fill="#ffffff" stroke="#000000" cx="550.2635" cy="-166.0452" rx="20.5122" ry="20.5122"/>
<text text-anchor="middle" x="550.2635" y="-163.8452" font-family="Times,serif" font-size="9.00" fill="#000000">11</text>
</g>
<!-- &#45;3&#45;&gt;11 -->
<g id="edge58" class="edge">
<title>&#45;3&#45;&gt;11</title>
<path fill="none" stroke="#00ff00" stroke-width=".1159" d="M366.3087,-239.9463C395.0826,-232.8085 465.7648,-213.7517 520.2635,-186.5513 521.8158,-185.7765 523.3808,-184.9316 524.9378,-184.0405"/>
<polygon fill="#00ff00" stroke="#00ff00" stroke-width=".1159" points="527.0079,-186.8738 533.6248,-178.5993 523.292,-180.9415 527.0079,-186.8738"/>
</g>
<!-- &#45;3&#45;&gt;13 -->
<g id="edge51" class="edge">
<title>&#45;3&#45;&gt;13</title>
<path fill="none" stroke="#ff0000" stroke-width=".3946" d="M344.8201,-233.9864C340.9362,-230.1438 336.1184,-225.8113 331.2635,-222.5513 299.5659,-201.2665 286.3225,-205.6531 253.2635,-186.5513 251.9621,-185.7993 250.6456,-185.0047 249.3287,-184.1822"/>
<polygon fill="#ff0000" stroke="#ff0000" stroke-width=".3946" points="251.0541,-181.1266 240.7874,-178.5103 247.1817,-186.958 251.0541,-181.1266"/>
</g>
<!-- &#45;3&#45;&gt;14 -->
<g id="edge65" class="edge">
<title>&#45;3&#45;&gt;14</title>
<path fill="none" stroke="#00ff00" stroke-width=".1845" d="M344.9587,-233.9207C334.9049,-222.8598 317.616,-203.839 303.8934,-188.7418"/>
<polygon fill="#00ff00" stroke="#00ff00" stroke-width=".1845" points="306.4159,-186.3133 297.0997,-181.2675 301.2359,-191.0216 306.4159,-186.3133"/>
</g>
<!-- &#45;3&#45;&gt;16 -->
<g id="edge8" class="edge">
<title>&#45;3&#45;&gt;16</title>
<path fill="none" stroke="#ff0000" stroke-width=".361" d="M366.4812,-241.3183C432.7234,-232.5812 726.1299,-193.6172 744.2635,-186.5513 745.9204,-185.9057 747.5762,-185.1536 749.2109,-184.3264"/>
<polygon fill="#ff0000" stroke="#ff0000" stroke-width=".361" points="751.3952,-187.0999 758.2061,-178.9843 747.8208,-181.0813 751.3952,-187.0999"/>
</g>
<!-- &#45;3&#45;&gt;17 -->
<g id="edge9" class="edge">
<title>&#45;3&#45;&gt;17</title>
<path fill="none" stroke="#00ff00" stroke-width=".397" d="M363.5851,-233.9207C376.7001,-222.3113 399.7213,-201.933 417.1261,-186.5263"/>
<polygon fill="#00ff00" stroke="#00ff00" stroke-width=".397" points="419.504,-189.0957 424.6719,-179.8468 414.8642,-183.8542 419.504,-189.0957"/>
</g>
<!-- &#45;4 -->
<g id="node4" class="node">
<title>&#45;4</title>
<polygon fill="#d3d3d3" stroke="#000000" points="814.2635,-252.0574 788.2635,-252.0574 788.2635,-234.0574 814.2635,-234.0574 814.2635,-252.0574"/>
<text text-anchor="middle" x="801.2635" y="-240.8574" font-family="Times,serif" font-size="9.00" fill="#000000">&#45;4</text>
</g>
<!-- &#45;4&#45;&gt;2 -->
<g id="edge37" class="edge">
<title>&#45;4&#45;&gt;2</title>
<path fill="none" stroke="#00ff00" stroke-width=".3638" d="M788.1103,-237.8469C776.0805,-233.254 757.7082,-226.6699 741.2635,-222.5513 644.7281,-198.3742 610.9591,-227.5135 520.2635,-186.5513 518.4601,-185.7368 516.6793,-184.7578 514.9492,-183.6751"/>
<polygon fill="#00ff00" stroke="#00ff00" stroke-width=".3638" points="516.969,-180.8157 506.8494,-177.6781 512.8037,-186.4415 516.969,-180.8157"/>
</g>
<!-- &#45;4&#45;&gt;6 -->
<g id="edge77" class="edge">
<title>&#45;4&#45;&gt;6</title>
<path fill="none" stroke="#00ff00" stroke-width=".3544" d="M804.5854,-233.9207C808.3989,-223.4319 814.8148,-205.7854 820.1488,-191.1143"/>
<polygon fill="#00ff00" stroke="#00ff00" stroke-width=".3544" points="823.4959,-192.1514 823.6236,-181.5574 816.9172,-189.7595 823.4959,-192.1514"/>
</g>
<!-- &#45;4&#45;&gt;8 -->
<g id="edge27" class="edge">
<title>&#45;4&#45;&gt;8</title>
<path fill="none" stroke="#ff0000" stroke-width=".1269" stroke-dasharray="1,5" d="M814.3713,-241.6271C840.8184,-237.9543 900.1785,-225.5491 925.2635,-186.5513 940.1044,-163.4791 927.3484,-132.0396 915.2572,-111.1667"/>
<polygon fill="#ff0000" stroke="#ff0000" stroke-width=".1269" points="918.0747,-109.067 909.8502,-102.3881 912.1145,-112.7381 918.0747,-109.067"/>
</g>
<!-- &#45;4&#45;&gt;10 -->
<g id="edge55" class="edge">
<title>&#45;4&#45;&gt;10</title>
<path fill="none" stroke="#ff0000" stroke-width=".1733" d="M788.1597,-237.6381C776.1631,-232.9047 757.8119,-226.2315 741.2635,-222.5513 596.8138,-190.4271 548.6565,-238.9445 410.2635,-186.5513 408.8218,-186.0055 407.3851,-185.3707 405.9662,-184.6696"/>
<polygon fill="#ff0000" stroke="#ff0000" stroke-width=".1733" points="407.3768,-181.4357 396.9956,-179.3187 403.7908,-187.4474 407.3768,-181.4357"/>
</g>
<!-- &#45;4&#45;&gt;11 -->
<g id="edge61" class="edge">
<title>&#45;4&#45;&gt;11</title>
<path fill="none" stroke="#00ff00" stroke-width=".2546" d="M787.9711,-238.3367C775.8476,-234.0735 757.4159,-227.6983 741.2635,-222.5513 684.4937,-204.4614 617.6194,-185.1253 579.9588,-174.4151"/>
<polygon fill="#00ff00" stroke="#00ff00" stroke-width=".2546" points="580.7195,-170.9929 570.1439,-171.6312 578.8094,-177.7272 580.7195,-170.9929"/>
</g>
<!-- &#45;4&#45;&gt;12 -->
<g id="edge75" class="edge">
<title>&#45;4&#45;&gt;12</title>
<path fill="none" stroke="#ff0000" stroke-width=".1488" d="M814.3128,-237.0727C831.0943,-228.5619 859.4778,-211.2115 871.2635,-186.5513 879.1234,-170.1054 882.2227,-160.1042 871.2635,-145.5391 851.3355,-119.0543 755.7597,-101.0899 705.8169,-93.3457"/>
<polygon fill="#ff0000" stroke="#ff0000" stroke-width=".1488" points="706.3061,-89.88 695.8959,-91.8489 705.2618,-96.8017 706.3061,-89.88"/>
</g>
<!-- &#45;4&#45;&gt;14 -->
<g id="edge31" class="edge">
<title>&#45;4&#45;&gt;14</title>
<path fill="none" stroke="#00ff00" stroke-width=".3214" d="M788.1737,-237.5738C776.1866,-232.7972 757.8413,-226.0966 741.2635,-222.5513 571.0423,-186.1481 522.1195,-219.8477 351.2635,-186.5513 338.3454,-184.0338 324.3787,-180.051 312.4833,-176.2623"/>
<polygon fill="#00ff00" stroke="#00ff00" stroke-width=".3214" points="313.2344,-172.8249 302.6414,-173.0245 311.0468,-179.4743 313.2344,-172.8249"/>
</g>
<!-- 15 -->
<g id="node24" class="node">
<title>15</title>
<ellipse fill="#ffffff" stroke="#000000" cx="1057.2635" cy="-166.0452" rx="20.5122" ry="20.5122"/>
<text text-anchor="middle" x="1057.2635" y="-163.8452" font-family="Times,serif" font-size="9.00" fill="#000000">15</text>
</g>
<!-- &#45;4&#45;&gt;15 -->
<g id="edge78" class="edge">
<title>&#45;4&#45;&gt;15</title>
<path fill="none" stroke="#00ff00" stroke-width=".4335" d="M814.37,-241.5219C850.1,-236.978 951.6546,-221.6601 1028.2635,-186.5513 1029.6298,-185.9251 1030.9989,-185.2323 1032.3578,-184.4911"/>
<polygon fill="#00ff00" stroke="#00ff00" stroke-width=".4335" points="1034.3956,-187.3456 1041.0411,-179.0941 1030.7003,-181.4004 1034.3956,-187.3456"/>
</g>
<!-- &#45;4&#45;&gt;17 -->
<g id="edge59" class="edge">
<title>&#45;4&#45;&gt;17</title>
<path fill="none" stroke="#ff0000" stroke-width=".3656" d="M788.1383,-237.7315C776.1274,-233.0609 757.767,-226.4276 741.2635,-222.5513 622.9798,-194.7692 583.7258,-230.0157 470.2635,-186.5513 468.6028,-185.9152 466.9442,-185.1705 465.3072,-184.3489"/>
<polygon fill="#ff0000" stroke="#ff0000" stroke-width=".3656" points="466.6946,-181.103 456.306,-179.0226 463.1298,-187.1274 466.6946,-181.103"/>
</g>
<!-- 18 -->
<g id="node27" class="node">
<title>18</title>
<ellipse fill="#ffffff" stroke="#000000" cx="998.2635" cy="-166.0452" rx="20.5122" ry="20.5122"/>
<text text-anchor="middle" x="998.2635" y="-163.8452" font-family="Times,serif" font-size="9.00" fill="#000000">18</text>
</g>
<!-- &#45;4&#45;&gt;18 -->
<g id="edge81" class="edge">
<title>&#45;4&#45;&gt;18</title>
<path fill="none" stroke="#00ff00" stroke-width=".2771" d="M814.6231,-239.3584C842.7766,-231.3571 909.9939,-211.1622 963.2635,-186.5513 966.1124,-185.2351 969.0301,-183.7557 971.9061,-182.2099"/>
<polygon fill="#00ff00" stroke="#00ff00" stroke-width=".2771" points="973.8398,-185.1372 980.8169,-177.1641 970.3905,-179.046 973.8398,-185.1372"/>
</g>
<!-- &#45;5 -->
<g id="node5" class="node">
<title>&#45;5</title>
<polygon fill="#d3d3d3" stroke="#000000" points="688.2635,-252.0574 662.2635,-252.0574 662.2635,-234.0574 688.2635,-234.0574 688.2635,-252.0574"/>
<text text-anchor="middle" x="675.2635" y="-240.8574" font-family="Times,serif" font-size="9.00" fill="#000000">&#45;5</text>
</g>
<!-- &#45;5&#45;&gt;4 -->
<g id="edge73" class="edge">
<title>&#45;5&#45;&gt;4</title>
<path fill="none" stroke="#00ff00" stroke-width=".1176" d="M662.2091,-240.3849C640.9354,-236.1076 597.429,-227.6846 560.2635,-222.5513 398.3489,-200.1876 345.2853,-249.0721 194.2635,-186.5513 192.4351,-185.7944 190.6363,-184.8572 188.8936,-183.8036"/>
<polygon fill="#00ff00" stroke="#00ff00" stroke-width=".1176" points="190.9076,-180.9404 180.7696,-177.8626 186.7755,-186.5907 190.9076,-180.9404"/>
</g>
<!-- &#45;5&#45;&gt;5 -->
<g id="edge34" class="edge">
<title>&#45;5&#45;&gt;5</title>
<path fill="none" stroke="#00ff00" stroke-width=".3381" d="M680.4836,-233.9207C686.7423,-222.9663 697.4617,-204.2044 706.0464,-189.1788"/>
<polygon fill="#00ff00" stroke="#00ff00" stroke-width=".3381" points="709.1349,-190.8283 711.0567,-180.4093 703.0569,-187.3557 709.1349,-190.8283"/>
</g>
<!-- &#45;5&#45;&gt;12 -->
<g id="edge4" class="edge">
<title>&#45;5&#45;&gt;12</title>
<path fill="none" stroke="#00ff00" stroke-width=".1411" d="M675.2635,-233.8837C675.2635,-211.9332 675.2635,-155.5671 675.2635,-119.9701"/>
<polygon fill="#00ff00" stroke="#00ff00" stroke-width=".1411" points="678.7636,-119.6506 675.2635,-109.6506 671.7636,-119.6506 678.7636,-119.6506"/>
</g>
<!-- &#45;5&#45;&gt;13 -->
<g id="edge80" class="edge">
<title>&#45;5&#45;&gt;13</title>
<path fill="none" stroke="#ff0000" stroke-width=".3165" d="M662.1977,-240.465C640.9079,-236.3001 597.3794,-228.0316 560.2635,-222.5513 424.3576,-202.4842 381.5385,-235.7306 253.2635,-186.5513 251.8241,-185.9994 250.3892,-185.3598 248.9718,-184.6548"/>
<polygon fill="#ff0000" stroke="#ff0000" stroke-width=".3165" points="250.3846,-181.4215 240.0061,-179.2912 246.7909,-187.4287 250.3846,-181.4215"/>
</g>
<!-- &#45;5&#45;&gt;14 -->
<g id="edge66" class="edge">
<title>&#45;5&#45;&gt;14</title>
<path fill="none" stroke="#ff0000" stroke-width=".1741" d="M662.1605,-240.6951C640.8186,-236.8532 597.2184,-229.0288 560.2635,-222.5513 467.422,-206.2781 443.0008,-208.1986 351.2635,-186.5513 338.4542,-183.5287 324.5055,-179.4619 312.5942,-175.7471"/>
<polygon fill="#ff0000" stroke="#ff0000" stroke-width=".1741" points="313.3216,-172.3056 302.7311,-172.6082 311.1988,-178.976 313.3216,-172.3056"/>
</g>
<!-- &#45;5&#45;&gt;15 -->
<g id="edge56" class="edge">
<title>&#45;5&#45;&gt;15</title>
<path fill="none" stroke="#ff0000" stroke-width=".1345" d="M682.4698,-234.0525C686.3764,-229.828 691.5664,-225.1593 697.2635,-222.5513 831.814,-160.9573 889.8704,-238.9445 1028.2635,-186.5513 1029.7052,-186.0055 1031.1418,-185.3707 1032.5607,-184.6696"/>
<polygon fill="#ff0000" stroke="#ff0000" stroke-width=".1345" points="1034.7361,-187.4474 1041.5313,-179.3187 1031.1501,-181.4357 1034.7361,-187.4474"/>
</g>
<!-- &#45;5&#45;&gt;16 -->
<g id="edge63" class="edge">
<title>&#45;5&#45;&gt;16</title>
<path fill="none" stroke="#00ff00" stroke-width=".2253" d="M684.4659,-234.0272C688.3262,-230.3597 692.9204,-226.148 697.2635,-222.5513 713.9172,-208.7594 733.5847,-194.3561 748.8741,-183.543"/>
<polygon fill="#00ff00" stroke="#00ff00" stroke-width=".2253" points="751.1372,-186.2308 757.3144,-177.6231 747.1176,-180.4999 751.1372,-186.2308"/>
</g>
<!-- &#45;6 -->
<g id="node6" class="node">
<title>&#45;6</title>
<polygon fill="#d3d3d3" stroke="#000000" points="551.2635,-252.0574 525.2635,-252.0574 525.2635,-234.0574 551.2635,-234.0574 551.2635,-252.0574"/>
<text text-anchor="middle" x="538.2635" y="-240.8574" font-family="Times,serif" font-size="9.00" fill="#000000">&#45;6</text>
</g>
<!-- &#45;6&#45;&gt;2 -->
<g id="edge21" class="edge">
<title>&#45;6&#45;&gt;2</title>
<path fill="none" stroke="#ff0000" stroke-width=".139" d="M533.1619,-233.9207C527.0455,-222.9663 516.5697,-204.2044 508.1802,-189.1788"/>
<polygon fill="#ff0000" stroke="#ff0000" stroke-width=".139" points="511.2147,-187.4342 503.2837,-180.4093 505.1029,-190.8467 511.2147,-187.4342"/>
</g>
<!-- &#45;6&#45;&gt;3 -->
<g id="edge62" class="edge">
<title>&#45;6&#45;&gt;3</title>
<path fill="none" stroke="#ff0000" stroke-width=".4533" d="M524.9869,-241.3836C451.1695,-232.0761 94.5511,-187.0913 93.2635,-186.5513 91.3549,-185.751 89.4689,-184.7702 87.637,-183.6756"/>
<polygon fill="#ff0000" stroke="#ff0000" stroke-width=".4533" points="89.2452,-180.5234 79.0726,-177.562 85.1781,-186.2207 89.2452,-180.5234"/>
</g>
<!-- &#45;6&#45;&gt;4 -->
<g id="edge16" class="edge">
<title>&#45;6&#45;&gt;4</title>
<path fill="none" stroke="#ff0000" stroke-width=".7188" d="M524.9297,-241.2843C465.3582,-233.3066 225.1426,-200.5224 194.2635,-186.5513 192.4606,-185.7356 190.6803,-184.7558 188.9504,-183.6724"/>
<polygon fill="#ff0000" stroke="#ff0000" stroke-width=".7188" points="190.9704,-180.8131 180.8512,-177.6742 186.8043,-186.4384 190.9704,-180.8131"/>
</g>
<!-- &#45;6&#45;&gt;6 -->
<g id="edge48" class="edge">
<title>&#45;6&#45;&gt;6</title>
<path fill="none" stroke="#00ff00" stroke-width=".3505" d="M551.5197,-240.6235C602.0496,-231.294 780.9146,-197.7766 804.2635,-186.5513 806.0468,-185.6939 807.8131,-184.6838 809.5331,-183.5794"/>
<polygon fill="#00ff00" stroke="#00ff00" stroke-width=".3505" points="811.6985,-186.3306 817.6134,-177.5406 807.508,-180.7235 811.6985,-186.3306"/>
</g>
<!-- &#45;6&#45;&gt;8 -->
<g id="edge72" class="edge">
<title>&#45;6&#45;&gt;8</title>
<path fill="none" stroke="#00ff00" stroke-width=".2323" d="M551.265,-234.2405C583.0808,-212.7786 664.4268,-158.6207 694.2635,-145.5391 756.1753,-118.3944 834.3651,-101.2568 874.2602,-93.6381"/>
<polygon fill="#00ff00" stroke="#00ff00" stroke-width=".2323" points="875.0355,-97.054 884.2256,-91.7822 873.7538,-90.1723 875.0355,-97.054"/>
</g>
<!-- &#45;6&#45;&gt;11 -->
<g id="edge38" class="edge">
<title>&#45;6&#45;&gt;11</title>
<path fill="none" stroke="#ff0000" stroke-width=".1079" stroke-dasharray="1,5" d="M539.6871,-233.9207C541.1317,-224.6496 543.4477,-209.7863 545.5447,-196.3286"/>
<polygon fill="#ff0000" stroke="#ff0000" stroke-width=".1079" points="549.0061,-196.8469 547.0875,-186.4273 542.0896,-195.7691 549.0061,-196.8469"/>
</g>
<!-- &#45;6&#45;&gt;12 -->
<g id="edge2" class="edge">
<title>&#45;6&#45;&gt;12</title>
<path fill="none" stroke="#00ff00" stroke-width=".3127" d="M546.1505,-233.8429C561.0664,-216.4536 594.4943,-177.6601 623.2635,-145.5391 633.3283,-134.3016 644.6552,-121.9584 654.162,-111.6824"/>
<polygon fill="#00ff00" stroke="#00ff00" stroke-width=".3127" points="656.7931,-113.9924 661.026,-104.2799 651.6602,-109.2329 656.7931,-113.9924"/>
</g>
<!-- &#45;6&#45;&gt;17 -->
<g id="edge24" class="edge">
<title>&#45;6&#45;&gt;17</title>
<path fill="none" stroke="#00ff00" stroke-width=".1255" d="M526.6367,-233.9207C511.3756,-221.9279 484.2063,-200.5772 464.4047,-185.0163"/>
<polygon fill="#00ff00" stroke="#00ff00" stroke-width=".1255" points="466.4509,-182.1729 456.4256,-178.746 462.1257,-187.6768 466.4509,-182.1729"/>
</g>
<!-- &#45;7 -->
<g id="node7" class="node">
<title>&#45;7</title>
<polygon fill="#d3d3d3" stroke="#000000" points="278.2635,-252.0574 252.2635,-252.0574 252.2635,-234.0574 278.2635,-234.0574 278.2635,-252.0574"/>
<text text-anchor="middle" x="265.2635" y="-240.8574" font-family="Times,serif" font-size="9.00" fill="#000000">&#45;7</text>
</g>
<!-- &#45;7&#45;&gt;2 -->
<g id="edge40" class="edge">
<title>&#45;7&#45;&gt;2</title>
<path fill="none" stroke="#ff0000" stroke-width=".2862" d="M272.9664,-233.8387C276.8469,-229.7751 281.8696,-225.3065 287.2635,-222.5513 361.0827,-184.8441 395.2879,-221.9035 470.2635,-186.5513 472.0533,-185.7074 473.8242,-184.7071 475.5474,-183.6094"/>
<polygon fill="#ff0000" stroke="#ff0000" stroke-width=".2862" points="477.7066,-186.3654 483.634,-177.5838 473.524,-180.7524 477.7066,-186.3654"/>
</g>
<!-- &#45;7&#45;&gt;3 -->
<g id="edge30" class="edge">
<title>&#45;7&#45;&gt;3</title>
<path fill="none" stroke="#00ff00" stroke-width=".1784" d="M252.1241,-240.3965C222.4762,-234.0466 148.6516,-216.2809 93.2635,-186.5513 91.288,-185.491 89.311,-184.2778 87.3788,-182.9829"/>
<polygon fill="#00ff00" stroke="#00ff00" stroke-width=".1784" points="89.4516,-180.1627 79.3384,-177.0044 85.2747,-185.78 89.4516,-180.1627"/>
</g>
<!-- &#45;7&#45;&gt;4 -->
<g id="edge19" class="edge">
<title>&#45;7&#45;&gt;4</title>
<path fill="none" stroke="#ff0000" stroke-width=".3122" d="M253.6617,-233.9095C239.569,-222.7778 215.0947,-203.3825 194.2635,-186.5513 192.8826,-185.4356 191.4613,-184.2826 190.0308,-183.1185"/>
<polygon fill="#ff0000" stroke="#ff0000" stroke-width=".3122" points="191.9093,-180.1334 181.952,-176.5135 187.4786,-185.5528 191.9093,-180.1334"/>
</g>
<!-- &#45;7&#45;&gt;13 -->
<g id="edge69" class="edge">
<title>&#45;7&#45;&gt;13</title>
<path fill="none" stroke="#00ff00" stroke-width=".1392" d="M260.3992,-233.9207C255.0747,-223.9194 246.2855,-207.4101 238.7085,-193.1781"/>
<polygon fill="#00ff00" stroke="#00ff00" stroke-width=".1392" points="241.742,-191.4279 233.9531,-184.2457 235.563,-194.7175 241.742,-191.4279"/>
</g>
<!-- &#45;7&#45;&gt;14 -->
<g id="edge43" class="edge">
<title>&#45;7&#45;&gt;14</title>
<path fill="none" stroke="#ff0000" stroke-width=".1751" d="M267.399,-233.9207C269.5807,-224.5861 273.0875,-209.5825 276.2499,-196.0523"/>
<polygon fill="#ff0000" stroke="#ff0000" stroke-width=".1751" points="279.7056,-196.6453 278.5735,-186.1112 272.8893,-195.0521 279.7056,-196.6453"/>
</g>
<!-- &#45;8 -->
<g id="node8" class="node">
<title>&#45;8</title>
<polygon fill="#d3d3d3" stroke="#000000" points="407.2635,-317.5635 381.2635,-317.5635 381.2635,-299.5635 407.2635,-299.5635 407.2635,-317.5635"/>
<text text-anchor="middle" x="394.2635" y="-306.3635" font-family="Times,serif" font-size="9.00" fill="#000000">&#45;8</text>
</g>
<!-- &#45;8&#45;&gt;2 -->
<g id="edge42" class="edge">
<title>&#45;8&#45;&gt;2</title>
<path fill="none" stroke="#00ff00" stroke-width=".179" d="M401.6845,-299.392C408.8968,-290.3932 420.0756,-276.2176 429.2635,-263.5635 447.6997,-238.1719 467.7546,-208.1715 480.8595,-188.2171"/>
<polygon fill="#00ff00" stroke="#00ff00" stroke-width=".179" points="483.8148,-190.0929 486.3608,-179.8085 477.957,-186.2605 483.8148,-190.0929"/>
</g>
<!-- &#45;8&#45;&gt;3 -->
<g id="edge50" class="edge">
<title>&#45;8&#45;&gt;3</title>
<path fill="none" stroke="#00ff00" stroke-width=".3592" stroke-dasharray="1,5" d="M380.9019,-307.7218C322.3521,-303.9018 90.4136,-287.3471 69.2635,-263.5635 52.1467,-244.3155 54.6646,-213.5124 59.5273,-191.6813"/>
<polygon fill="#00ff00" stroke="#00ff00" stroke-width=".3592" points="62.9739,-192.3272 62.027,-181.7748 56.1866,-190.6145 62.9739,-192.3272"/>
</g>
<!-- &#45;8&#45;&gt;4 -->
<g id="edge79" class="edge">
<title>&#45;8&#45;&gt;4</title>
<path fill="none" stroke="#00ff00" stroke-width=".7492" d="M381.2297,-306.5597C345.448,-300.8474 246.6687,-283.5959 221.2635,-263.5635 198.1117,-245.3081 184.018,-213.8324 176.4498,-191.5849"/>
<polygon fill="#00ff00" stroke="#00ff00" stroke-width=".7492" points="179.703,-190.2658 173.335,-181.7983 173.0327,-192.3888 179.703,-190.2658"/>
</g>
<!-- &#45;8&#45;&gt;6 -->
<g id="edge60" class="edge">
<title>&#45;8&#45;&gt;6</title>
<path fill="none" stroke="#ff0000" stroke-width=".2805" d="M407.4774,-308.1726C476.5162,-306.0014 793.7367,-294.3899 823.2635,-263.5635 841.1106,-244.9307 839.8673,-214.0118 835.9189,-191.9852"/>
<polygon fill="#ff0000" stroke="#ff0000" stroke-width=".2805" points="839.3005,-191.0557 833.8351,-181.9793 832.4475,-192.4829 839.3005,-191.0557"/>
</g>
<!-- &#45;8&#45;&gt;7 -->
<g id="edge14" class="edge">
<title>&#45;8&#45;&gt;7</title>
<path fill="none" stroke="#ff0000" stroke-width=".1958" d="M381.1964,-307.64C321.7403,-303.333 78.5253,-284.5407 52.2635,-263.5635 30.7173,-246.353 22.0665,-214.9455 18.5933,-192.4201"/>
<polygon fill="#ff0000" stroke="#ff0000" stroke-width=".1958" points="22.0609,-191.944 17.302,-182.4781 15.1192,-192.8456 22.0609,-191.944"/>
</g>
<!-- &#45;8&#45;&gt;8 -->
<g id="edge53" class="edge">
<title>&#45;8&#45;&gt;8</title>
<path fill="none" stroke="#ff0000" stroke-width=".3738" d="M407.5849,-308.0285C478.9486,-305.0703 816.5253,-289.8873 917.2635,-263.5635 997.5156,-242.5929 1042.3129,-256.2623 1087.2635,-186.5513 1097.1414,-171.2322 1098.1295,-160.1738 1087.2635,-145.5391 1067.944,-119.5191 973.2517,-100.8571 926.4908,-93.0684"/>
<polygon fill="#ff0000" stroke="#ff0000" stroke-width=".3738" points="926.9255,-89.5933 916.4942,-91.4479 925.8053,-96.5031 926.9255,-89.5933"/>
</g>
<!-- &#45;8&#45;&gt;9 -->
<g id="edge47" class="edge">
<title>&#45;8&#45;&gt;9</title>
<path fill="none" stroke="#00ff00" stroke-width=".3754" d="M381.1177,-306.9918C340.6858,-301.9641 218.9377,-285.3213 186.2635,-263.5635 159.3265,-245.6262 139.8771,-213.0785 128.8483,-190.5468"/>
<polygon fill="#00ff00" stroke="#00ff00" stroke-width=".3754" points="131.9198,-188.8528 124.5083,-181.2818 125.5808,-191.8222 131.9198,-188.8528"/>
</g>
<!-- &#45;8&#45;&gt;10 -->
<g id="edge70" class="edge">
<title>&#45;8&#45;&gt;10</title>
<path fill="none" stroke="#ff0000" stroke-width=".4455" d="M393.4105,-299.2125C391.548,-278.7936 387.0466,-229.4453 384.0776,-196.8969"/>
<polygon fill="#ff0000" stroke="#ff0000" stroke-width=".4455" points="387.5296,-196.2096 383.1356,-186.5689 380.5585,-196.8455 387.5296,-196.2096"/>
</g>
<!-- &#45;8&#45;&gt;13 -->
<g id="edge45" class="edge">
<title>&#45;8&#45;&gt;13</title>
<path fill="none" stroke="#00ff00" stroke-width=".4885" d="M380.9157,-306.3897C347.5987,-300.6937 262.103,-284.3295 243.2635,-263.5635 227.0036,-245.6409 222.8591,-218.0739 222.4343,-196.8163"/>
<polygon fill="#00ff00" stroke="#00ff00" stroke-width=".4885" points="225.9351,-196.6806 222.497,-186.6591 218.9353,-196.6373 225.9351,-196.6806"/>
</g>
<!-- &#45;8&#45;&gt;15 -->
<g id="edge39" class="edge">
<title>&#45;8&#45;&gt;15</title>
<path fill="none" stroke="#00ff00" stroke-width=".3792" d="M407.409,-307.783C472.311,-303.849 758.8959,-285.5148 845.2635,-263.5635 930.7863,-241.8268 951.1179,-229.3906 1028.2635,-186.5513 1029.5775,-185.8216 1030.9042,-185.045 1032.2292,-184.237"/>
<polygon fill="#00ff00" stroke="#00ff00" stroke-width=".3792" points="1034.3579,-187.0264 1040.7981,-178.6137 1030.5173,-181.1741 1034.3579,-187.0264"/>
</g>
<!-- &#45;8&#45;&gt;16 -->
<g id="edge64" class="edge">
<title>&#45;8&#45;&gt;16</title>
<path fill="none" stroke="#ff0000" stroke-width=".4253" d="M407.5342,-307.669C467.9157,-303.4902 714.8973,-285.1798 741.2635,-263.5635 760.9813,-247.3978 768.971,-218.9666 772.1806,-196.9597"/>
<polygon fill="#ff0000" stroke="#ff0000" stroke-width=".4253" points="775.6888,-197.0995 773.4028,-186.7543 768.7385,-196.2672 775.6888,-197.0995"/>
</g>
<!-- &#45;8&#45;&gt;17 -->
<g id="edge6" class="edge">
<title>&#45;8&#45;&gt;17</title>
<path fill="none" stroke="#ff0000" stroke-width=".101" d="M397.2816,-299.2125C403.9549,-278.5372 420.2016,-228.2014 430.6988,-195.6788"/>
<polygon fill="#ff0000" stroke="#ff0000" stroke-width=".101" points="434.1446,-196.3973 433.8855,-185.8056 427.483,-194.2471 434.1446,-196.3973"/>
</g>
<!-- 19 -->
<g id="node28" class="node">
<title>19</title>
<ellipse fill="#ffffff" stroke="#000000" cx="99.2635" cy="-243.0574" rx="20.5122" ry="20.5122"/>
<text text-anchor="middle" x="99.2635" y="-240.8574" font-family="Times,serif" font-size="9.00" fill="#000000">19</text>
</g>
<!-- &#45;8&#45;&gt;19 -->
<g id="edge84" class="edge">
<title>&#45;8&#45;&gt;19</title>
<path fill="none" stroke="#00ff00" stroke-width=".3" d="M381.1256,-307.9436C342.2465,-305.7646 224.8247,-296.6906 134.2635,-263.5635 131.3161,-262.4854 128.3344,-261.1612 125.4195,-259.7094"/>
<polygon fill="#00ff00" stroke="#00ff00" stroke-width=".3" points="126.9089,-256.5342 116.46,-254.7815 123.5353,-262.6676 126.9089,-256.5342"/>
</g>
<!-- 0 -->
<g id="node9" class="node">
<title>0</title>
<ellipse fill="#add8e6" stroke="#000000" cx="365.2635" cy="-89.033" rx="16.0303" ry="16.0303"/>
<text text-anchor="middle" x="365.2635" y="-86.833" font-family="Times,serif" font-size="9.00" fill="#000000">0</text>
</g>
<!-- 1 -->
<g id="node10" class="node">
<title>1</title>
<ellipse fill="#add8e6" stroke="#000000" cx="665.2635" cy="-16.2635" rx="16.0303" ry="16.0303"/>
<text text-anchor="middle" x="665.2635" y="-14.0635" font-family="Times,serif" font-size="9.00" fill="#000000">1</text>
</g>
<!-- 2&#45;&gt;0 -->
<g id="edge15" class="edge">
<title>2&#45;&gt;0</title>
<path fill="none" stroke="#ff0000" stroke-width=".1015" d="M482.9114,-155.1201C478.9893,-151.8707 474.5539,-148.4139 470.2635,-145.5391 443.7173,-127.7522 411.0093,-110.8712 389.2216,-100.2705"/>
<polygon fill="#ff0000" stroke="#ff0000" stroke-width=".1015" points="390.5704,-97.0356 380.0409,-95.8611 387.5398,-103.3456 390.5704,-97.0356"/>
</g>
<!-- 3&#45;&gt;0 -->
<g id="edge32" class="edge">
<title>3&#45;&gt;0</title>
<path fill="none" stroke="#ff0000" stroke-width=".1794" d="M79.1753,-154.7606C83.3549,-151.3382 88.2616,-147.8714 93.2635,-145.5391 177.358,-106.3264 288.6709,-94.1385 338.8005,-90.5025"/>
<polygon fill="#ff0000" stroke="#ff0000" stroke-width=".1794" points="339.068,-93.9925 348.8122,-89.833 338.6009,-87.0081 339.068,-93.9925"/>
</g>
<!-- 4&#45;&gt;0 -->
<g id="edge23" class="edge">
<title>4&#45;&gt;0</title>
<path fill="none" stroke="#00ff00" stroke-width=".3681" d="M181.0729,-154.8592C185.0418,-151.5236 189.6404,-148.0831 194.2635,-145.5391 242.1753,-119.1743 304.4405,-102.4588 339.0807,-94.5143"/>
<polygon fill="#00ff00" stroke="#00ff00" stroke-width=".3681" points="339.8969,-97.9184 348.8977,-92.3294 338.3761,-91.0856 339.8969,-97.9184"/>
</g>
<!-- 4&#45;&gt;1 -->
<g id="edge52" class="edge">
<title>4&#45;&gt;1</title>
<path fill="none" stroke="#00ff00" stroke-width=".7342" d="M179.353,-152.9441C196.8587,-131.279 235.1442,-88.4093 278.2635,-68.5269 342.9599,-38.6953 562.255,-22.6207 638.7091,-17.8208"/>
<polygon fill="#00ff00" stroke="#00ff00" stroke-width=".7342" points="639.1507,-21.3004 648.9174,-17.1942 638.7217,-14.3136 639.1507,-21.3004"/>
</g>
<!-- 5&#45;&gt;0 -->
<g id="edge29" class="edge">
<title>5&#45;&gt;0</title>
<path fill="none" stroke="#00ff00" stroke-width=".2166" d="M703.1329,-162.536C647.1546,-150.358 460.9159,-109.8421 391.5758,-94.7572"/>
<polygon fill="#00ff00" stroke="#00ff00" stroke-width=".2166" points="392.0042,-91.2686 381.4887,-92.5628 390.5161,-98.1086 392.0042,-91.2686"/>
</g>
<!-- 6&#45;&gt;0 -->
<g id="edge36" class="edge">
<title>6&#45;&gt;0</title>
<path fill="none" stroke="#ff0000" stroke-width=".1036" d="M817.7203,-154.3153C813.7657,-150.9505 809.1082,-147.6303 804.2635,-145.5391 729.1469,-113.1153 475.2571,-95.5358 391.9711,-90.5393"/>
<polygon fill="#ff0000" stroke="#ff0000" stroke-width=".1036" points="392.0046,-87.0353 381.8163,-89.9421 391.5936,-94.0232 392.0046,-87.0353"/>
</g>
<!-- 6&#45;&gt;1 -->
<g id="edge18" class="edge">
<title>6&#45;&gt;1</title>
<path fill="none" stroke="#00ff00" stroke-width=".5701" stroke-dasharray="1,5" d="M818.4037,-153.7628C801.2994,-134.6869 766.6857,-97.1569 734.2635,-68.5269 719.2016,-55.2268 701.05,-41.5624 687.1452,-31.5427"/>
<polygon fill="#00ff00" stroke="#00ff00" stroke-width=".5701" points="688.8719,-28.4755 678.6962,-25.525 684.811,-34.1772 688.8719,-28.4755"/>
</g>
<!-- 7&#45;&gt;0 -->
<g id="edge10" class="edge">
<title>7&#45;&gt;0</title>
<path fill="none" stroke="#00ff00" stroke-width=".1492" d="M28.1328,-154.6675C32.3095,-151.2389 37.2253,-147.792 42.2635,-145.5391 95.6761,-121.6545 271.5631,-99.6948 338.8043,-91.9681"/>
<polygon fill="#00ff00" stroke="#00ff00" stroke-width=".1492" points="339.4431,-95.4182 348.9843,-90.8122 338.6532,-88.4629 339.4431,-95.4182"/>
</g>
<!-- 8&#45;&gt;1 -->
<g id="edge46" class="edge">
<title>8&#45;&gt;1</title>
<path fill="none" stroke="#ff0000" stroke-width=".3238" d="M884.4795,-84.1454C844.5955,-71.795 739.4849,-39.2467 690.7483,-24.155"/>
<polygon fill="#ff0000" stroke="#ff0000" stroke-width=".3238" points="691.5665,-20.7445 680.9787,-21.1298 689.4958,-27.4312 691.5665,-20.7445"/>
</g>
<!-- 9&#45;&gt;0 -->
<g id="edge3" class="edge">
<title>9&#45;&gt;0</title>
<path fill="none" stroke="#ff0000" stroke-width=".1145" d="M130.239,-154.8932C134.4228,-151.4796 139.3159,-147.9846 144.2635,-145.5391 209.9085,-113.0917 296.0189,-98.0379 338.7847,-92.1791"/>
<polygon fill="#ff0000" stroke="#ff0000" stroke-width=".1145" points="339.4638,-95.6201 348.9254,-90.8527 338.5559,-88.6793 339.4638,-95.6201"/>
</g>
<!-- 10&#45;&gt;0 -->
<g id="edge13" class="edge">
<title>10&#45;&gt;0</title>
<path fill="none" stroke="#ff0000" stroke-width=".4345" d="M377.0596,-145.8112C375.0943,-136.3515 372.7311,-124.9765 370.6376,-114.9003"/>
<polygon fill="#ff0000" stroke="#ff0000" stroke-width=".4345" points="374.0428,-114.0835 368.5817,-105.0046 367.1891,-115.5075 374.0428,-114.0835"/>
</g>
<!-- 11&#45;&gt;0 -->
<g id="edge76" class="edge">
<title>11&#45;&gt;0</title>
<path fill="none" stroke="#ff0000" stroke-width=".2988" d="M533.5871,-153.5655C529.3659,-150.7129 524.7527,-147.8455 520.2635,-145.5391 476.774,-123.1964 422.3646,-105.5258 390.9351,-96.2308"/>
<polygon fill="#ff0000" stroke="#ff0000" stroke-width=".2988" points="391.7858,-92.8333 381.2064,-93.405 389.8332,-99.5555 391.7858,-92.8333"/>
</g>
<!-- 13&#45;&gt;0 -->
<g id="edge5" class="edge">
<title>13&#45;&gt;0</title>
<path fill="none" stroke="#ff0000" stroke-width=".494" d="M240.8491,-153.6848C244.8392,-150.8894 249.1415,-148.0176 253.2635,-145.5391 282.5291,-127.9419 317.9609,-110.7031 341.0267,-99.9851"/>
<polygon fill="#ff0000" stroke="#ff0000" stroke-width=".494" points="342.7725,-103.0346 350.3942,-95.6752 339.8466,-96.6754 342.7725,-103.0346"/>
</g>
<!-- 13&#45;&gt;1 -->
<g id="edge11" class="edge">
<title>13&#45;&gt;1</title>
<path fill="none" stroke="#00ff00" stroke-width=".1941" d="M237.8115,-150.2049C257.7901,-127.9951 297.4413,-88.1272 340.2635,-68.5269 393.6711,-44.0815 570.8506,-25.197 638.6014,-18.704"/>
<polygon fill="#00ff00" stroke="#00ff00" stroke-width=".1941" points="639.2319,-22.1601 648.8588,-17.736 638.5742,-15.1911 639.2319,-22.1601"/>
</g>
<!-- 14&#45;&gt;0 -->
<g id="edge35" class="edge">
<title>14&#45;&gt;0</title>
<path fill="none" stroke="#ff0000" stroke-width=".2742" d="M298.3035,-151.92C311.6454,-139.3896 331.2178,-121.0078 345.7596,-107.3505"/>
<polygon fill="#ff0000" stroke="#ff0000" stroke-width=".2742" points="348.3562,-109.7135 353.2494,-100.3163 343.564,-104.611 348.3562,-109.7135"/>
</g>
<!-- 16&#45;&gt;0 -->
<g id="edge41" class="edge">
<title>16&#45;&gt;0</title>
<path fill="none" stroke="#ff0000" stroke-width=".2274" d="M758.2002,-153.1211C753.8882,-150.2109 749.0794,-147.4281 744.2635,-145.5391 679.3315,-120.0704 466.4946,-98.4135 391.6118,-91.4112"/>
<polygon fill="#ff0000" stroke="#ff0000" stroke-width=".2274" points="391.8782,-87.921 381.5985,-90.4857 391.2339,-94.8913 391.8782,-87.921"/>
</g>
<!-- 16&#45;&gt;1 -->
<g id="edge57" class="edge">
<title>16&#45;&gt;1</title>
<path fill="none" stroke="#ff0000" stroke-width=".1401" d="M762.4877,-148.995C748.9023,-129.4209 725.7949,-96.4207 705.2635,-68.5269 697.6923,-58.2408 689.1065,-46.9729 681.8358,-37.5418"/>
<polygon fill="#ff0000" stroke="#ff0000" stroke-width=".1401" points="684.4833,-35.2441 675.5951,-29.4778 678.9475,-39.5283 684.4833,-35.2441"/>
</g>
<!-- 17&#45;&gt;1 -->
<g id="edge68" class="edge">
<title>17&#45;&gt;1</title>
<path fill="none" stroke="#00ff00" stroke-width=".292" d="M457.3688,-154.2917C461.577,-151.4171 466.0767,-148.3576 470.2635,-145.5391 532.6981,-103.5084 606.9127,-54.594 643.1441,-30.7812"/>
<polygon fill="#00ff00" stroke="#00ff00" stroke-width=".292" points="645.0707,-33.7032 651.5069,-25.2874 641.2273,-27.8527 645.0707,-33.7032"/>
</g>
<!-- 17&#45;&gt;12 -->
<g id="edge83" class="edge">
<title>17&#45;&gt;12</title>
<path fill="none" stroke="#00ff00" stroke-width=".2661" d="M456.8132,-153.3063C461.0383,-150.4615 465.6849,-147.6627 470.2635,-145.5391 529.2623,-118.1751 604.138,-101.7138 645.1009,-94.108"/>
<polygon fill="#00ff00" stroke="#00ff00" stroke-width=".2661" points="645.7755,-97.5429 654.9945,-92.3217 644.5317,-90.6542 645.7755,-97.5429"/>
</g>
<!-- 18&#45;&gt;8 -->
<g id="edge82" class="edge">
<title>18&#45;&gt;8</title>
<path fill="none" stroke="#00ff00" stroke-width=".3848" d="M982.0807,-153.3282C965.542,-140.3314 939.7718,-120.0802 921.5794,-105.7839"/>
<polygon fill="#00ff00" stroke="#00ff00" stroke-width=".3848" points="923.3563,-102.7288 913.3309,-99.3019 919.0311,-108.2327 923.3563,-102.7288"/>
</g>
<!-- 19&#45;&gt;3 -->
<g id="edge85" class="edge">
<title>19&#45;&gt;3</title>
<path fill="none" stroke="#00ff00" stroke-width=".2661" d="M91.3533,-224.0207C87.159,-213.9263 81.958,-201.4096 77.4633,-190.5925"/>
<polygon fill="#00ff00" stroke="#00ff00" stroke-width=".2661" points="80.6525,-189.1461 73.5832,-181.2546 74.1883,-191.8321 80.6525,-189.1461"/>
</g>
</g>
</svg>
